<?xml version="1.0" encoding="UTF-8" standalone="no"?>
<svg width="500px" height="300px" viewBox="0 0 500 300" version="1.1" xmlns="http://www.w3.org/2000/svg" xmlns:xlink="http://www.w3.org/1999/xlink">
  <g id="Artboard" stroke="none" stroke-width="1" fill="none" fill-rule="evenodd">
    <path d="M30 33.7Q33.44 33.29 36.89 32.74 40.33 32.05 43.78 31.27 47.22 30.43 50.67 29.57 54.11 28.73 57.56 27.95 61 27.26 64.45 26.7 67.89 26.29 71.34 26.05 74.78 26 78.23 26.13 81.67 26.44 85.12 26.91 88.57 27.52 92.01 28.25 95.46 29.06 98.9 29.91 102.35 30.77 105.79 31.59 109.24 32.34 112.68 32.98 116.13 33.48 119.57 33.82 123.02 33.98 126.46 33.96 129.91 33.76 133.35 33.38 136.8 32.85 140.25 32.18 143.69 31.41 147.14 30.58 150.58 29.72 154.03 28.88 157.47 28.08 160.92 27.38 164.36 26.79 167.81 26.35 171.25 26.08 174.7 26 178.14 26.09 181.59 26.37 185.03 26.81 188.48 27.4 191.92 28.11 195.37 28.91 198.82 29.76 202.26 30.62 205.71 31.45 209.15 32.21 212.6 32.87 216.04 33.4 219.49 33.77 222.93 33.97 226.38 33.98 229.82 33.81 233.27 33.46 236.71 32.95 240.16 32.31 243.6 31.56 247.05 30.73 250.5 29.88 253.94 29.03 257.39 28.22 260.83 27.49 264.28 26.88 267.72 26.42 271.17 26.12 274.61 26 278.06 26.06 281.5 26.31 284.95 26.72 288.39 27.29 291.84 27.98 295.28 28.76 298.73 29.61 302.17 30.47 305.62 31.3 309.07 32.08 312.51 32.76 315.96 33.32 319.4 33.72 322.85 33.94 326.29 33.99 329.74 33.85 333.18 33.53 336.63 33.05 340.07 32.43 343.52 31.7 346.96 30.89 350.41 30.03 353.85 29.18 357.3 28.36 360.75 27.62 364.19 26.98 367.64 26.49 371.08 26.16 374.53 26.01 377.97 26.04 381.42 26.25 384.86 26.63 388.31 27.18 391.75 27.85 395.2 28.62 398.64 29.45 402.09 30.31 405.53 31.16 408.98 31.95 412.42 32.65 415.87 33.23 419.32 33.66 422.76 33.92 426.21 33.99 429.65 33.89 433.1 33.6 436.54 33.15 439.99 32.55 443.43 31.84 446.88 31.03 450.32 30.19 453.77 29.33 457.21 28.5 460.66 27.74 464.1 27.09 467.55 26.57 471 26.21 471 29.96 471 33.71 471 37.46 471 41.21 471 44.96 471 48.71 471 52.46 471 56.21 471 59.96 471 63.71 471 67.46 471 71.21 471 74.96 471 78.71 471 82.46 471 86.21 471 89.96 471 93.71 471 97.46 471 101.21 471 104.96 471 108.71 471 112.46 471 116.21 471 119.96 471 123.71 471 127.46 471 131.21 471 134.96 471 138.71 471 142.46 471 146.21 471 149.96 471 153.71 471 157.46 471 161.21 471 164.96 471 168.71 471 172.46 471 176.21 471 179.96 471 183.71 471 187.46 471 191.21 471 194.96 471 198.71 471 202.46 471 206.21 471 209.96 471 213.71 471 217.46 471 221.21 471 224.96 471 228.71 471 232.46 471 236.21 471 239.96 471 243.71 471 247.46 471 251.21 471 254.96 471 258.71 471 262.46 471 266.21 467.55 266.57 464.1 267.09 460.66 267.74 457.21 268.5 453.77 269.33 450.32 270.19 446.88 271.03 443.43 271.84 439.99 272.55 436.54 273.15 433.1 273.6 429.65 273.89 426.21 273.99 422.76 273.92 419.32 273.66 415.87 273.23 412.42 272.65 408.98 271.95 405.53 271.16 402.09 270.31 398.64 269.45 395.2 268.62 391.75 267.85 388.31 267.18 384.86 266.63 381.42 266.25 377.97 266.04 374.53 266.01 371.08 266.16 367.64 266.49 364.19 266.98 360.75 267.62 357.3 268.36 353.85 269.18 350.41 270.03 346.96 270.89 343.52 271.7 340.07 272.43 336.63 273.05 333.18 273.53 329.74 273.85 326.29 273.99 322.85 273.94 319.4 273.72 315.96 273.32 312.51 272.76 309.07 272.08 305.62 271.3 302.17 270.47 298.73 269.61 295.28 268.76 291.84 267.98 288.39 267.29 284.95 266.72 281.5 266.31 278.06 266.06 274.61 266 271.17 266.12 267.72 266.42 264.28 266.88 260.83 267.49 257.39 268.22 253.94 269.03 250.5 269.88 247.05 270.73 243.6 271.56 240.16 272.31 236.71 272.95 233.27 273.46 229.82 273.81 226.38 273.98 222.93 273.97 219.49 273.77 216.04 273.4 212.6 272.87 209.15 272.21 205.71 271.45 202.26 270.62 198.82 269.76 195.37 268.91 191.92 268.11 188.48 267.4 185.03 266.81 181.59 266.37 178.14 266.09 174.7 266 171.25 266.08 167.81 266.35 164.36 266.79 160.92 267.38 157.47 268.08 154.03 268.88 150.58 269.72 147.14 270.58 143.69 271.41 140.25 272.18 136.8 272.85 133.35 273.38 129.91 273.76 126.46 273.96 123.02 273.98 119.57 273.82 116.13 273.48 112.68 272.98 109.24 272.34 105.79 271.59 102.35 270.77 98.9 269.91 95.46 269.06 92.01 268.25 88.57 267.52 85.12 266.91 81.67 266.44 78.23 266.13 74.78 266 71.34 266.05 67.89 266.29 64.45 266.7 61 267.26 57.56 267.95 54.11 268.73 50.67 269.57 47.22 270.43 43.78 271.27 40.33 272.05 36.89 272.74 33.44 273.29 30 273.7 30 269.95 30 266.2 30 262.45 30 258.7 30 254.95 30 251.2 30 247.45 30 243.7 30 239.95 30 236.2 30 232.45 30 228.7 30 224.95 30 221.2 30 217.45 30 213.7 30 209.95 30 206.2 30 202.45 30 198.7 30 194.95 30 191.2 30 187.45 30 183.7 30 179.95 30 176.2 30 172.45 30 168.7 30 164.95 30 161.2 30 157.45 30 153.7 30 149.95 30 146.2 30 142.45 30 138.7 30 134.95 30 131.2 30 127.45 30 123.7 30 119.95 30 116.2 30 112.45 30 108.7 30 104.95 30 101.2 30 97.45 30 93.7 30 89.95 30 86.2 30 82.45 30 78.7 30 74.95 30 71.2 30 67.45 30 63.7 30 59.95 30 56.2 30 52.45 30 48.7 30 44.95 30 41.2 30 37.45 30 33.7" id="Rectangle" fill="#e5e5e5"></path><path d="M57.92 78.91Q57.92 82.15 57.92 85.39 57.92 88.63 57.92 91.87 55.37 92.44 52.83 93.04 52.83 88.88 52.83 84.72 52.83 80.56 52.83 76.4 52.83 72.24 52.83 68.08 52.83 63.93 52.83 59.77 57.2 58.76 61.56 57.89C63 57.65 64.31 57.64 65.5 57.87 66.68 58.11 67.7 58.6 68.56 59.34 69.44 60.08 70.11 61.1 70.59 62.37 71.06 63.64 71.31 65.17 71.31 66.97 71.31 68.89 71.08 70.5 70.61 71.8 70.15 73.11 69.48 74.19 68.64 75.06 67.79 75.93 66.8 76.59 65.64 77.07 64.48 77.56 63.23 77.92 61.85 78.15Q59.88 78.51 57.92 78.91 57.92 78.91 57.92 78.91M57.92 73.72Q59.86 73.33 61.8 72.97C63.34 72.72 64.43 72.18 65.09 71.33 65.75 70.5 66.12 69.2 66.22 67.42 66.15 65.74 65.73 64.54 64.97 63.84 64.2 63.15 63.15 62.91 61.8 63.13Q59.86 63.49 57.92 63.88 57.92 68.8 57.92 73.72 57.92 73.72 57.92 73.72M91.56 92.15Q90.32 87.75 89.07 83.36 86.5 82.88 83.93 82.47 81.36 82.14 78.8 81.91 77.55 85.96 76.3 90.03 73.61 90 70.92 90.07 72.21 85.86 73.51 81.68 74.81 77.52 76.1 73.39 77.4 69.28 78.69 65.2 79.99 61.15 81.29 57.12 83.93 57.46 86.57 57.88 87.87 62.28 89.18 66.69 90.49 71.12 91.8 75.57 93.11 80.02 94.42 84.49 95.73 88.97 97.04 93.45 94.3 92.78 91.56 92.15 91.56 92.15 91.56 92.15M83.93 64.57Q83.03 67.66 82.13 70.76 81.22 73.87 80.33 76.99 83.93 77.43 87.53 78.02 86.63 74.65 85.73 71.28 84.83 67.92 83.93 64.57 83.93 64.57 83.93 64.57M120.56 97.88Q117.89 97.67 115.23 97.36 113.95 94.4 112.68 91.42 111.41 88.42 110.14 85.4 108.86 82.36 107.59 79.32 106.32 76.26 105.05 73.19 105.05 75.97 105.05 78.74 105.05 81.52 105.05 84.3 105.05 87.08 105.05 89.86 105.05 92.64 105.05 95.42 102.51 94.81 99.96 94.18 99.96 90.02 99.96 85.86 99.96 81.7 99.96 77.54 99.96 73.38 99.96 69.22 99.96 65.06 99.96 60.91 102.68 61.58 105.39 62.23 106.64 65.28 107.89 68.33 109.14 71.37 110.4 74.39 111.65 77.39 112.91 80.38 114.16 83.35 115.42 86.3 115.42 83.52 115.42 80.75 115.42 77.98 115.42 75.21 115.42 72.43 115.42 69.66 115.42 66.89 115.42 64.12 117.99 64.41 120.56 64.61 120.56 68.77 120.56 72.93 120.56 77.09 120.56 81.24 120.56 85.4 120.56 89.56 120.56 93.72 120.56 97.88 120.56 97.88 120.56 97.88M142.78 67.64Q139.92 68.26 137.07 68.81 134.21 69.27 131.36 69.63 131.36 74 131.36 78.37 134.02 78.04 136.68 77.62 139.34 77.12 142.01 76.55 142.01 79.14 142.01 81.73 139.34 82.3 136.68 82.8 134.02 83.22 131.36 83.55 131.36 87.94 131.36 92.34 134.28 91.97 137.21 91.49 140.13 90.92 143.07 90.28 143.07 92.92 143.07 95.56 138.85 96.46 134.64 97.2 130.43 97.71 126.22 97.97 126.22 93.81 126.22 89.65 126.22 85.49 126.22 81.33 126.22 77.17 126.22 73.01 126.22 68.86 126.22 64.7 130.36 64.45 134.5 63.95 138.63 63.24 142.78 62.36 142.78 65 142.78 67.64 142.78 67.64 142.78 67.64M146.62 61.44Q149.21 60.8 151.8 60.15 151.8 63.65 151.8 67.15 151.8 70.65 151.8 74.14 151.8 77.64 151.8 81.14 151.8 84.64 151.8 88.14 154.48 87.49 157.15 86.87 159.83 86.31 162.51 85.81 162.51 88.45 162.51 91.09 158.53 91.85 154.56 92.75 150.59 93.72 146.62 94.71 146.62 90.55 146.62 86.39 146.62 82.23 146.62 78.07 146.62 73.91 146.62 69.76 146.62 65.6 146.62 61.44 146.62 61.44 146.62 61.44M182.09 77.46Q182.09 80.7 182.09 83.94 182.09 87.18 182.09 90.42 179.55 90.18 177 90.04 177 85.88 177 81.72 177 77.56 177 73.4 177 69.24 177 65.08 177 60.93 177 56.77 181.37 57.07 185.74 57.65C187.18 57.89 188.49 58.32 189.68 58.95 190.86 59.57 191.88 60.39 192.75 61.41 193.61 62.41 194.28 63.63 194.76 65.04 195.24 66.45 195.48 68.05 195.48 69.85 195.48 71.77 195.25 73.31 194.79 74.48 194.32 75.65 193.67 76.54 192.82 77.14 191.97 77.75 190.97 78.1 189.82 78.2 188.67 78.31 187.4 78.24 186.03 78.01Q184.06 77.71 182.09 77.46 182.09 77.46 182.09 77.46M182.09 72.27Q184.04 72.52 185.98 72.81C187.52 73.07 188.61 72.91 189.27 72.28 189.92 71.66 190.3 70.48 190.4 68.74 190.33 67.03 189.92 65.7 189.15 64.74 188.38 63.79 187.32 63.2 185.98 62.97Q184.04 62.68 182.09 62.43 182.09 67.35 182.09 72.27 182.09 72.27 182.09 72.27M213.44 97.01Q211.74 93.4 210.05 89.77 208.36 86.1 206.67 82.42 205.49 82.15 204.32 81.87 204.32 85.18 204.32 88.49 204.32 91.8 204.32 95.12 201.75 94.49 199.18 93.85 199.18 89.69 199.18 85.53 199.18 81.37 199.18 77.21 199.18 73.05 199.18 68.89 199.18 64.74 199.18 60.58 203.48 61.65 207.77 62.64C209.15 62.94 210.43 63.4 211.61 64.02 212.8 64.64 213.83 65.42 214.71 66.37 215.59 67.31 216.27 68.44 216.77 69.77 217.27 71.09 217.52 72.61 217.52 74.34 217.52 76.74 217.05 78.65 216.12 80.08 215.19 81.48 213.9 82.36 212.24 82.69Q214.01 86.52 215.79 90.3 217.56 94.05 219.34 97.76 216.39 97.44 213.44 97.01 213.44 97.01 213.44 97.01M204.32 67.08Q204.32 71.88 204.32 76.68 206.14 77.11 207.96 77.52C209.4 77.82 210.49 77.68 211.23 77.08 211.96 76.48 212.33 75.31 212.33 73.58 212.33 71.95 211.92 70.67 211.08 69.73 210.25 68.78 209.21 68.18 207.96 67.92Q206.14 67.51 204.32 67.08 204.32 67.08 204.32 67.08M239.5 68.45Q236.64 68.97 233.79 69.4 230.93 69.72 228.08 69.93 228.08 74.3 228.08 78.67 230.74 78.48 233.4 78.19 236.06 77.81 238.73 77.34 238.73 79.93 238.73 82.52 236.06 82.99 233.4 83.37 230.74 83.66 228.08 83.85 228.08 88.24 228.08 92.64 231 92.43 233.93 92.09 236.86 91.65 239.79 91.1 239.79 93.74 239.79 96.38 235.57 97.14 231.36 97.67 227.15 97.96 222.94 97.97 222.94 93.81 222.94 89.65 222.94 85.49 222.94 81.33 222.94 77.17 222.94 73.01 222.94 68.85 222.94 64.7 227.08 64.69 231.22 64.42 235.36 63.9 239.5 63.17 239.5 65.81 239.5 68.45 239.5 68.45 239.5 68.45M254.86 81.43Q251.97 82.13 249.07 82.85 246.18 83.57 243.29 84.25 243.29 81.75 243.29 79.26 246.18 78.58 249.07 77.86 251.97 77.14 254.86 76.44 254.86 78.93 254.86 81.43 254.86 81.43 254.86 81.43M274.11 90Q272.41 86.74 270.72 83.52 269.02 80.35 267.33 77.21 266.16 77.36 264.99 77.53 264.99 80.84 264.99 84.15 264.99 87.46 264.99 90.78 262.42 91.2 259.85 91.69 259.85 87.53 259.85 83.37 259.85 79.21 259.85 75.05 259.85 70.89 259.85 66.74 259.85 62.58 259.85 58.42 264.14 57.64 268.44 57.07C269.82 56.95 271.1 57.05 272.27 57.39 273.47 57.75 274.5 58.34 275.38 59.16 276.26 59.97 276.95 61.03 277.44 62.32 277.94 63.6 278.19 65.1 278.19 66.83 278.19 69.23 277.72 71.18 276.8 72.69 275.87 74.2 274.57 75.27 272.91 75.91Q274.68 79.41 276.46 82.95 278.23 86.54 280.01 90.18 277.06 90.02 274.11 90 274.11 90 274.11 90M264.99 62.74Q264.99 67.54 264.99 72.34 266.81 72.09 268.64 71.88C270.08 71.76 271.16 71.32 271.89 70.54 272.64 69.76 273 68.52 273 66.79 273 65.16 272.58 63.97 271.76 63.23 270.92 62.48 269.88 62.17 268.64 62.28Q266.81 62.49 264.99 62.74 264.99 62.74 264.99 62.74M300.17 65.97Q297.31 65.26 294.46 64.58 291.6 63.94 288.75 63.36 288.75 67.73 288.75 72.1 291.41 72.64 294.07 73.23 296.74 73.86 299.39 74.52 299.39 77.11 299.39 79.7 296.74 79.04 294.07 78.41 291.41 77.82 288.75 77.28 288.75 81.67 288.75 86.07 291.67 86.66 294.6 87.32 297.52 88.03 300.45 88.76 300.45 91.4 300.45 94.04 296.24 92.99 292.03 92.02 287.82 91.18 283.61 90.54 283.61 86.38 283.61 82.22 283.61 78.06 283.61 73.9 283.61 69.74 283.61 65.59 283.61 61.43 283.61 57.27 287.75 57.9 291.89 58.72 296.02 59.67 300.17 60.69 300.17 63.33 300.17 65.97 300.17 65.97 300.17 65.97M304.01 61.65Q306.6 62.26 309.2 62.84 309.2 66.34 309.2 69.83 309.2 73.33 309.2 76.83 309.2 80.33 309.2 83.83 309.2 87.33 309.2 90.83 311.87 91.36 314.55 91.83 317.22 92.2 319.89 92.48 319.89 95.12 319.89 97.76 315.92 97.31 311.95 96.66 307.98 95.84 304.01 94.92 304.01 90.76 304.01 86.6 304.01 82.44 304.01 78.28 304.01 74.12 304.01 69.96 304.01 65.8 304.01 61.65 304.01 61.65 304.01 61.65M340.2 68.42Q337.34 68.95 334.49 69.38 331.63 69.71 328.78 69.92 328.78 74.29 328.78 78.66 331.44 78.47 334.11 78.17 336.77 77.78 339.44 77.31 339.44 79.9 339.44 82.49 336.77 82.96 334.11 83.35 331.44 83.65 328.78 83.84 328.78 88.23 328.78 92.63 331.71 92.41 334.63 92.07 337.56 91.62 340.49 91.07 340.49 93.71 340.49 96.35 336.28 97.11 332.06 97.66 327.85 97.95 323.64 97.97 323.64 93.81 323.64 89.65 323.64 85.49 323.64 81.33 323.64 77.17 323.64 73.02 323.64 68.86 323.64 64.7 327.78 64.68 331.91 64.4 336.06 63.87 340.2 63.14 340.2 65.78 340.2 68.42 340.2 68.42 340.2 68.42M363.24 91.15Q362 87.24 360.75 83.36 358.18 83.9 355.61 84.49 353.04 85.12 350.48 85.75 349.23 90.2 347.98 94.64 345.29 95.29 342.6 95.9 343.89 91.45 345.19 86.99 346.49 82.52 347.78 78.05 349.08 73.57 350.37 69.09 351.67 64.6 352.97 60.12 355.61 59.48 358.25 58.88 359.55 62.75 360.86 66.64 362.17 70.54 363.48 74.47 364.79 78.41 366.1 82.37 367.41 86.36 368.72 90.37 365.98 90.71 363.24 91.15 363.24 91.15 363.24 91.15M355.61 66.59Q354.71 70.02 353.81 73.46 352.91 76.89 352.01 80.33 355.61 79.45 359.21 78.64 358.31 75.62 357.41 72.6 356.51 69.6 355.61 66.59 355.61 66.59 355.61 66.59M384.99 66.6C384.99 65.25 384.63 64.06 383.91 63.03 383.19 62 382.16 61.42 380.81 61.3 379.31 61.2 378.22 61.54 377.55 62.32 376.87 63.11 376.54 64.11 376.54 65.32 376.54 66.44 376.89 67.3 377.6 67.89 378.3 68.49 379.17 69.02 380.21 69.48 381.25 69.96 382.39 70.46 383.62 70.99 384.85 71.52 385.99 72.25 387.03 73.15 388.07 74.05 388.94 75.22 389.64 76.63 390.35 78.05 390.7 79.86 390.7 82.07 390.7 83.8 390.44 85.24 389.93 86.39 389.42 87.54 388.72 88.44 387.82 89.09 386.92 89.76 385.89 90.21 384.72 90.45 383.55 90.7 382.32 90.76 381 90.64 379.53 90.54 378.16 90.28 376.88 89.86 375.59 89.47 374.49 88.87 373.56 88.06 372.63 87.26 371.9 86.23 371.36 84.95 370.81 83.68 370.54 82.12 370.54 80.26Q373.28 80.1 376.01 80.06C376.17 81.76 376.67 83.07 377.52 84.04 378.37 85.01 379.53 85.55 381 85.65 381.55 85.7 382.08 85.64 382.61 85.48 383.14 85.33 383.61 85.08 384.03 84.74 384.44 84.39 384.78 83.93 385.04 83.36 385.29 82.78 385.42 82.11 385.42 81.35 385.42 80 385.08 78.94 384.39 78.16 383.7 77.39 382.84 76.75 381.8 76.23 380.75 75.74 379.64 75.32 378.44 74.93 377.23 74.56 376.12 74.06 375.08 73.39 374.03 72.73 373.17 71.81 372.48 70.64 371.79 69.45 371.45 67.77 371.45 65.6 371.45 64.09 371.68 62.76 372.15 61.57 372.61 60.4 373.26 59.41 374.09 58.62 374.92 57.83 375.89 57.25 377 56.86 378.1 56.49 379.31 56.35 380.62 56.43 382.22 56.57 383.62 56.97 384.82 57.6 386.02 58.25 387.01 59.07 387.8 60.08 388.58 61.07 389.16 62.2 389.55 63.46 389.93 64.72 390.12 66.05 390.12 67.46Q387.56 67 384.99 66.6 384.99 66.6 384.99 66.6M411.68 68.52Q408.82 67.92 405.96 67.27 403.1 66.57 400.25 65.86 400.25 70.23 400.25 74.6 402.91 75.27 405.58 75.92 408.24 76.53 410.91 77.1 410.91 79.69 410.91 82.28 408.24 81.71 405.58 81.1 402.91 80.45 400.25 79.78 400.25 84.17 400.25 88.57 403.18 89.3 406.1 90.01 409.03 90.68 411.96 91.28 411.96 93.92 411.96 96.56 407.75 95.67 403.54 94.67 399.33 93.62 395.12 92.6 395.12 88.44 395.12 84.28 395.12 80.12 395.12 75.96 395.12 71.8 395.12 67.64 395.12 63.49 395.12 59.33 399.26 60.33 403.4 61.37 407.54 62.35 411.68 63.24 411.68 65.88 411.68 68.52 411.68 68.52 411.68 68.52M67.31 115.08Q69.87 114.86 72.41 114.75 72.41 118.9 72.41 123.06 72.41 127.22 72.41 131.38 72.41 135.54 72.41 139.7 72.41 143.86 72.41 148.02 69.87 148.13 67.31 148.35 67.31 144.71 67.31 141.07 67.31 137.43 67.31 133.8 62.64 134.43 57.96 135.31 57.96 138.95 57.96 142.59 57.96 146.22 57.96 149.86 55.4 150.43 52.83 151.04 52.83 146.88 52.83 142.72 52.83 138.56 52.83 134.4 52.83 130.24 52.83 126.08 52.83 121.93 52.83 117.77 55.4 117.16 57.96 116.59 57.96 119.99 57.96 123.39 57.96 126.78 57.96 130.18 62.64 129.3 67.31 128.67 67.31 125.27 67.31 121.87 67.31 118.47 67.31 115.08 67.31 115.08 67.31 115.08M95.98 151.19Q94.73 146.75 93.48 142.33 90.91 141.75 88.34 141.22 85.78 140.75 83.21 140.37 81.96 144.34 80.72 148.33 78.03 148.12 75.34 148.01 76.63 143.89 77.93 139.79 79.22 135.72 80.52 131.68 81.81 127.66 83.11 123.66 84.41 119.69 85.71 115.73 88.35 116.21 90.99 116.75 92.29 121.2 93.6 125.66 94.91 130.13 96.22 134.61 97.52 139.09 98.83 143.58 100.14 148.06 101.45 152.55 98.72 151.87 95.98 151.19 95.98 151.19 95.98 151.19M88.35 123.32Q87.44 126.36 86.55 129.42 85.65 132.48 84.75 135.55 88.35 136.18 91.95 136.94 91.05 133.52 90.15 130.11 89.25 126.71 88.35 123.32 88.35 123.32 88.35 123.32M124.97 155.99Q122.31 155.96 119.64 155.82 118.37 152.94 117.09 150.03 115.82 147.1 114.55 144.15 113.28 141.18 112.01 138.19 110.74 135.18 109.47 132.15 109.47 134.93 109.47 137.71 109.47 140.49 109.47 143.27 109.47 146.04 109.47 148.82 109.47 151.6 109.47 154.38 106.92 153.84 104.38 153.26 104.38 149.1 104.38 144.94 104.38 140.78 104.38 136.62 104.38 132.46 104.38 128.31 104.38 124.15 104.38 119.99 107.09 120.61 109.8 121.18 111.05 124.19 112.31 127.19 113.56 130.17 114.82 133.12 116.07 136.06 117.33 138.98 118.58 141.87 119.84 144.75 119.84 141.97 119.84 139.2 119.84 136.43 119.84 133.66 119.84 130.88 119.84 128.11 119.84 125.34 119.84 122.57 122.4 122.69 124.97 122.72 124.97 126.88 124.97 131.04 124.97 135.2 124.97 139.35 124.97 143.51 124.97 147.67 124.97 151.83 124.97 155.99 124.97 155.99 124.97 155.99M145.47 129.85C145.37 129.17 145.21 128.53 144.99 127.95 144.76 127.36 144.46 126.87 144.08 126.48 143.69 126.1 143.22 125.82 142.68 125.66 142.13 125.49 141.47 125.5 140.72 125.66 139.5 125.91 138.52 126.44 137.76 127.23 137.01 128.03 136.43 128.99 136.01 130.14 135.59 131.28 135.32 132.56 135.16 134 135.03 135.42 134.96 136.9 134.96 138.44 134.96 139.88 135 141.3 135.1 142.72 135.19 144.12 135.43 145.36 135.82 146.41 136.19 147.47 136.76 148.28 137.5 148.86 138.24 149.42 139.24 149.58 140.52 149.31 141.61 149.08 142.51 148.67 143.24 148.07 143.96 147.46 144.53 146.76 144.96 145.93 145.4 145.11 145.71 144.19 145.9 143.19 146.09 142.18 146.22 141.14 146.28 140.07Q142.85 140.89 139.41 141.63 139.41 139.15 139.41 136.68 142.33 136.06 145.25 135.37 148.16 134.66 151.08 133.93 151.08 138.35 151.08 142.76 151.08 147.18 151.08 151.6 148.8 152.17 146.52 152.74 146.52 151.06 146.52 149.37C145.82 151.05 145 152.25 144.05 152.99 143.11 153.72 141.93 154.25 140.52 154.55 138.44 154.97 136.72 154.82 135.34 154.1 133.96 153.37 132.87 152.25 132.05 150.78 131.22 149.3 130.66 147.55 130.32 145.52 129.99 143.48 129.82 141.32 129.82 139.05 129.82 136.84 129.97 134.71 130.3 132.63 130.62 130.55 131.19 128.68 132 127.01 132.82 125.32 133.91 123.91 135.32 122.76 136.71 121.58 138.49 120.78 140.66 120.34 142.16 120.01 143.52 119.97 144.72 120.24 145.91 120.49 146.94 120.98 147.82 121.71 148.68 122.44 149.36 123.39 149.86 124.56 150.36 125.74 150.65 127.06 150.75 128.54Q148.11 129.2 145.47 129.85 145.47 129.85 145.47 129.85M165.92 115.3Q168.51 115.01 171.1 114.82 171.1 118.32 171.1 121.82 171.1 125.32 171.1 128.81 171.1 132.31 171.1 135.81 171.1 139.31 171.1 142.81 173.77 142.72 176.45 142.74 179.12 142.87 181.8 143.11 181.8 145.75 181.8 148.39 177.83 148.07 173.86 148 169.89 148.17 165.92 148.57 165.92 144.41 165.92 140.25 165.92 136.09 165.92 131.94 165.92 127.78 165.92 123.62 165.92 119.46 165.92 115.3 165.92 115.3 165.92 115.3M190.44 116.52Q190.44 120.68 190.44 124.84 190.44 129 190.44 133.16 190.44 137.32 190.44 141.47 190.44 145.63 190.44 149.79 187.88 149.29 185.31 148.85 185.31 144.69 185.31 140.53 185.31 136.37 185.31 132.22 185.31 128.06 185.31 123.9 185.31 119.74 185.31 115.58 187.88 116.02 190.44 116.52 190.44 116.52 190.44 116.52M205.04 145.85Q205.89 142.82 206.75 139.79 207.61 136.75 208.47 133.71 209.32 130.66 210.18 127.61 211.04 124.54 211.9 121.48 214.56 121.92 217.23 122.27 216.07 126.29 214.92 130.29 213.77 134.27 212.62 138.24 211.46 142.19 210.31 146.13 209.16 150.05 208.01 153.97 205.01 153.28 202.01 152.55 200.85 148.11 199.69 143.66 198.53 139.21 197.38 134.76 196.22 130.32 195.06 125.88 193.9 121.45 192.75 117.03 195.48 117.67 198.22 118.34 199.07 121.78 199.92 125.22 200.77 128.66 201.63 132.1 202.48 135.54 203.33 138.98 204.18 142.42 205.04 145.85 205.04 145.85 205.04 145.85M236.33 127.03Q233.47 127.44 230.62 127.75 227.76 127.94 224.91 128 224.91 132.37 224.91 136.74 227.57 136.69 230.23 136.52 232.9 136.25 235.56 135.89 235.56 138.48 235.56 141.07 232.9 141.43 230.23 141.7 227.57 141.87 224.91 141.92 224.91 146.31 224.91 150.71 227.83 150.65 230.76 150.45 233.69 150.13 236.62 149.69 236.62 152.33 236.62 154.97 232.41 155.56 228.19 155.91 223.98 155.99 219.77 155.79 219.77 151.63 219.77 147.47 219.77 143.31 219.77 139.15 219.77 135 219.77 130.84 219.77 126.68 219.77 122.52 223.91 122.72 228.05 122.65 232.19 122.32 236.33 121.75 236.33 124.39 236.33 127.03 236.33 127.03 236.33 127.03M267.52 120.4Q264.83 120.76 262.13 121.21 259.43 121.74 256.73 122.33 256.73 126.82 256.73 131.31 259.31 130.74 261.89 130.23 264.47 129.8 267.05 129.44 267.05 132.01 267.05 134.58 264.47 134.94 261.89 135.37 259.31 135.88 256.73 136.45 256.73 139.93 256.73 143.41 256.73 146.89 256.73 150.37 254.14 150.98 251.55 151.62 251.55 147.46 251.55 143.3 251.55 139.14 251.55 134.98 251.55 130.82 251.55 126.66 251.55 122.5 251.55 118.35 255.54 117.37 259.53 116.48 263.53 115.74 267.52 115.17 267.52 117.79 267.52 120.4 267.52 120.4 267.52 120.4M285.72 148.83Q284.02 145.28 282.33 141.76 280.64 138.29 278.95 134.86 277.77 134.8 276.6 134.76 276.6 138.07 276.6 141.38 276.6 144.7 276.6 148.01 274.02 148 271.47 148.1 271.47 143.94 271.47 139.78 271.47 135.62 271.47 131.46 271.47 127.3 271.47 123.15 271.47 118.99 271.47 114.83 275.76 114.73 280.06 114.91C281.44 115.03 282.7 115.36 283.89 115.91 285.08 116.47 286.11 117.24 287 118.2 287.88 119.16 288.56 120.33 289.06 121.69 289.56 123.05 289.8 124.59 289.8 126.32 289.8 128.72 289.33 130.6 288.41 131.96 287.48 133.32 286.19 134.18 284.52 134.54Q286.29 138.34 288.07 142.17 289.85 146.04 291.63 149.93 288.68 149.34 285.72 148.83 285.72 148.83 285.72 148.83M276.6 119.97Q276.6 124.77 276.6 129.57 278.43 129.64 280.25 129.76C281.69 129.88 282.77 129.64 283.52 128.99 284.25 128.34 284.62 127.16 284.62 125.43 284.62 123.8 284.2 122.54 283.37 121.65 282.54 120.76 281.5 120.26 280.25 120.16Q278.43 120.04 276.6 119.97 276.6 119.97 276.6 119.97M305.31 119.48C307.48 119.98 309.27 120.84 310.68 122.08 312.08 123.29 313.2 124.75 314.02 126.48 314.83 128.19 315.39 130.09 315.72 132.19 316.04 134.29 316.2 136.43 316.2 138.64 316.2 140.91 316.02 143.05 315.68 145.08 315.32 147.08 314.72 148.8 313.88 150.24 313.02 151.66 311.91 152.72 310.52 153.39 309.12 154.05 307.39 154.14 305.31 153.66 303.23 153.15 301.49 152.25 300.1 150.96 298.7 149.67 297.58 148.13 296.74 146.35 295.89 144.58 295.29 142.62 294.94 140.48 294.58 138.33 294.41 136.12 294.41 133.85 294.41 131.64 294.57 129.55 294.89 127.58 295.2 125.61 295.77 123.92 296.6 122.54 297.41 121.15 298.52 120.16 299.93 119.57 301.33 118.98 303.13 118.95 305.31 119.48Q305.31 119.48 305.31 119.48M305.2 148.39C306.56 148.71 307.62 148.6 308.39 148.08 309.19 147.54 309.77 146.75 310.16 145.71 310.54 144.66 310.79 143.44 310.89 142.05 311.01 140.64 311.07 139.22 311.07 137.78 311.07 136.24 311 134.76 310.88 133.33 310.75 131.9 310.48 130.59 310.08 129.42 309.68 128.25 309.08 127.25 308.31 126.44 307.52 125.6 306.48 125.03 305.16 124.72 303.95 124.43 302.97 124.52 302.24 125 301.5 125.47 300.93 126.19 300.52 127.18 300.13 128.17 299.87 129.36 299.74 130.74 299.61 132.1 299.55 133.56 299.55 135.1 299.55 136.54 299.6 137.98 299.72 139.44 299.83 140.89 300.07 142.22 300.45 143.44 300.83 144.65 301.41 145.7 302.16 146.6 302.92 147.49 303.93 148.09 305.2 148.39Q305.2 148.39 305.2 148.39M333.72 145Q334.57 142.04 335.42 139.07 336.27 136.09 337.13 133.1 337.98 130.11 338.83 127.1 339.68 124.09 340.54 121.07 343.47 120.44 346.4 119.75 346.4 123.91 346.4 128.07 346.4 132.23 346.4 136.39 346.4 140.54 346.4 144.7 346.4 148.86 346.4 153.02 343.85 153.62 341.31 154.18 341.31 151.56 341.31 148.94 341.31 146.31 341.31 143.69 341.31 141.07 341.31 138.45 341.31 135.82 341.31 133.2 340.53 135.98 339.75 138.76 338.97 141.53 338.19 144.3 337.41 147.06 336.63 149.81 335.85 152.55 335.07 155.29 333.68 155.47 332.28 155.63 331.5 153.09 330.73 150.53 329.96 147.97 329.18 145.4 328.41 142.81 327.63 140.22 326.86 137.62 326.08 135.01 326.08 137.63 326.08 140.26 326.08 142.88 326.08 145.5 326.08 148.12 326.08 150.75 326.08 153.37 326.08 155.99 323.57 155.97 321.05 155.85 321.05 151.69 321.05 147.53 321.05 143.37 321.05 139.21 321.05 135.05 321.05 130.89 321.05 126.73 321.05 122.58 323.98 122.71 326.91 122.71 327.76 125.53 328.61 128.35 329.46 131.15 330.31 133.94 331.16 136.72 332.01 139.49 332.87 142.25 333.72 145 333.72 145 333.72 145M52.2 175.92Q54.8 175.3 57.39 174.72 57.39 178.21 57.39 181.71 57.39 185.21 57.39 188.71 57.39 192.21 57.39 195.71 57.39 199.21 57.39 202.71 60.06 202.16 62.74 201.68 65.41 201.29 68.09 200.99 68.09 203.63 68.09 206.27 64.12 206.75 60.14 207.42 56.17 208.25 52.2 209.19 52.2 205.03 52.2 200.87 52.2 196.71 52.2 192.55 52.2 188.4 52.2 184.24 52.2 180.08 52.2 175.92 52.2 175.92 52.2 175.92M81.81 172.7C84 172.99 85.79 173.74 87.2 174.93 88.6 176.14 89.71 177.62 90.53 179.39 91.35 181.14 91.91 183.09 92.24 185.21 92.56 187.33 92.72 189.49 92.72 191.7 92.72 193.97 92.54 196.1 92.19 198.09 91.83 200.07 91.24 201.75 90.39 203.14 89.54 204.53 88.42 205.56 87.03 206.24 85.63 206.95 83.9 207.15 81.81 206.88 79.73 206.67 78 206.07 76.61 205.05 75.22 204.07 74.09 202.81 73.25 201.24 72.4 199.69 71.8 197.9 71.45 195.85 71.09 193.8 70.92 191.63 70.92 189.36 70.92 187.15 71.08 185.03 71.4 182.96 71.72 180.9 72.29 179.06 73.11 177.46 73.92 175.87 75.03 174.61 76.44 173.71 77.84 172.82 79.64 172.48 81.81 172.7Q81.81 172.7 81.81 172.7M81.72 201.64C83.07 201.81 84.13 201.6 84.92 201.02 85.7 200.43 86.28 199.62 86.67 198.57 87.05 197.52 87.3 196.29 87.41 194.89 87.52 193.48 87.58 192.06 87.58 190.62 87.58 189.08 87.52 187.6 87.39 186.18 87.26 184.74 87 183.45 86.6 182.28 86.19 181.12 85.6 180.15 84.82 179.38 84.03 178.6 82.99 178.13 81.68 177.97 80.45 177.84 79.48 178.08 78.75 178.68 78.01 179.28 77.44 180.12 77.04 181.19 76.64 182.27 76.38 183.51 76.25 184.91 76.12 186.31 76.06 187.77 76.06 189.31 76.06 190.75 76.11 192.19 76.23 193.62 76.34 195.04 76.59 196.32 76.97 197.46 77.36 198.6 77.92 199.54 78.68 200.3 79.43 201.05 80.44 201.51 81.72 201.64Q81.72 201.64 81.72 201.64M110.76 188.58C110.76 187.23 110.4 186.03 109.68 184.95 108.96 183.85 107.93 183.16 106.59 182.87 105.08 182.52 104 182.67 103.32 183.31 102.65 183.94 102.32 184.87 102.32 186.08 102.32 187.2 102.67 188.14 103.37 188.89 104.08 189.63 104.95 190.32 105.99 190.96 107.03 191.6 108.16 192.23 109.4 192.88 110.63 193.5 111.76 194.27 112.8 195.18 113.84 196.08 114.71 197.22 115.42 198.6 116.12 199.97 116.48 201.75 116.48 203.96 116.48 205.69 116.22 207.15 115.71 208.33 115.19 209.52 114.49 210.45 113.6 211.12 112.7 211.8 111.67 212.23 110.5 212.41 109.33 212.59 108.09 212.53 106.78 212.24 105.31 211.91 103.93 211.39 102.65 210.69 101.37 210 100.27 209.11 99.34 208.05 98.41 206.98 97.68 205.73 97.13 204.28 96.59 202.84 96.32 201.19 96.32 199.33Q99.05 200.01 101.79 200.69C101.95 202.43 102.45 203.86 103.3 205.02 104.15 206.17 105.31 206.92 106.78 207.25 107.32 207.37 107.86 207.38 108.39 207.28 108.92 207.18 109.39 206.98 109.8 206.66 110.22 206.34 110.55 205.9 110.81 205.34 111.07 204.78 111.2 204.12 111.2 203.36 111.2 202.01 110.85 200.93 110.16 200.11 109.47 199.28 108.61 198.57 107.57 197.95 106.53 197.31 105.41 196.7 104.21 196.1 103.01 195.48 101.89 194.72 100.85 193.79 99.81 192.85 98.95 191.69 98.26 190.31 97.57 188.92 97.23 187.14 97.23 184.97 97.23 183.46 97.46 182.19 97.92 181.15 98.39 180.11 99.03 179.31 99.87 178.75 100.7 178.19 101.67 177.85 102.77 177.72 103.88 177.59 105.08 177.67 106.4 177.98 108 178.33 109.39 178.86 110.6 179.57 111.8 180.27 112.79 181.11 113.57 182.11 114.36 183.09 114.94 184.19 115.32 185.43 115.71 186.66 115.9 187.99 115.9 189.4Q113.33 189.03 110.76 188.58 110.76 188.58 110.76 188.58M149.55 209.98Q148.3 206.16 147.05 202.34 144.48 202.97 141.91 203.56 139.35 204.11 136.78 204.59 135.53 208.93 134.28 213.25 131.6 213.59 128.91 213.83 130.2 209.57 131.5 205.28 132.79 200.97 134.09 196.64 135.38 192.29 136.68 187.91 137.98 183.52 139.28 179.11 141.91 178.55 144.56 177.94 145.86 181.78 147.17 185.62 148.48 189.45 149.79 193.28 151.09 197.12 152.4 200.95 153.71 204.79 155.02 208.64 152.28 209.3 149.55 209.98 149.55 209.98 149.55 209.98M141.91 185.66Q141.01 189.07 140.11 192.48 139.22 195.88 138.32 199.27 141.91 198.52 145.52 197.68 144.62 194.68 143.71 191.68 142.81 188.67 141.91 185.66 141.91 185.66 141.91 185.66M178.54 206.11Q175.88 206.01 173.21 206.01 171.93 203.27 170.66 200.56 169.39 197.87 168.12 195.2 166.85 192.56 165.58 189.94 164.31 187.35 163.04 184.77 163.04 187.55 163.04 190.33 163.04 193.1 163.04 195.88 163.04 198.66 163.04 201.44 163.04 204.22 163.04 207 160.49 207.46 157.94 207.98 157.94 203.82 157.94 199.66 157.94 195.5 157.94 191.34 157.94 187.18 157.94 183.02 157.94 178.87 157.94 174.71 160.66 174.16 163.37 173.68 164.62 176.25 165.87 178.85 167.13 181.47 168.38 184.12 169.64 186.78 170.89 189.47 172.14 192.18 173.4 194.92 173.4 192.14 173.4 189.37 173.4 186.6 173.4 183.83 173.4 181.05 173.4 178.28 173.4 175.51 173.4 172.74 175.97 172.74 178.54 172.84 178.54 177 178.54 181.16 178.54 185.32 178.54 189.48 178.54 193.64 178.54 197.79 178.54 201.95 178.54 206.11 178.54 206.11 178.54 206.11M199.04 186.67C198.94 185.94 198.78 185.23 198.56 184.53 198.33 183.84 198.03 183.2 197.64 182.63 197.26 182.05 196.8 181.56 196.25 181.13 195.71 180.71 195.05 180.41 194.28 180.23 193.07 179.95 192.08 180.06 191.33 180.54 190.58 181.04 190 181.78 189.58 182.78 189.16 183.76 188.88 184.95 188.74 186.33 188.59 187.7 188.52 189.16 188.52 190.7 188.52 192.14 188.57 193.58 188.67 195.03 188.76 196.47 189 197.78 189.39 198.98 189.77 200.18 190.33 201.2 191.07 202.07 191.8 202.93 192.81 203.51 194.09 203.81 195.18 204.06 196.08 204.06 196.8 203.81 197.52 203.55 198.1 203.12 198.53 202.51 198.96 201.89 199.27 201.13 199.47 200.22 199.66 199.31 199.79 198.33 199.85 197.3Q196.42 196.45 192.99 195.63 192.99 193.15 192.99 190.68 195.9 191.37 198.82 192.09 201.73 192.82 204.65 193.53 204.65 197.94 204.65 202.36 204.65 206.78 204.65 211.2 202.37 210.64 200.09 210.08 200.09 208.4 200.09 206.72C199.39 208.04 198.56 208.84 197.62 209.12 196.67 209.4 195.5 209.37 194.09 209.04 192.01 208.56 190.28 207.72 188.91 206.5 187.53 205.3 186.44 203.85 185.62 202.14 184.8 200.45 184.23 198.55 183.89 196.45 183.55 194.33 183.39 192.14 183.39 189.87 183.39 187.66 183.55 185.56 183.87 183.55 184.19 181.55 184.75 179.81 185.57 178.35 186.39 176.9 187.49 175.83 188.88 175.15 190.28 174.48 192.06 174.39 194.24 174.89 195.74 175.25 197.09 175.85 198.29 176.7 199.49 177.54 200.52 178.53 201.39 179.7 202.25 180.85 202.93 182.14 203.43 183.56 203.92 184.98 204.22 186.44 204.32 187.98Q201.68 187.33 199.04 186.67 199.04 186.67 199.04 186.67M225.92 186Q223.06 185.98 220.2 185.83 217.34 185.57 214.49 185.19 214.49 189.56 214.49 193.93 217.15 194.29 219.82 194.55 222.48 194.7 225.15 194.74 225.15 197.33 225.15 199.92 222.48 199.88 219.82 199.73 217.15 199.47 214.49 199.11 214.49 203.5 214.49 207.9 217.42 208.29 220.34 208.55 223.27 208.69 226.2 208.7 226.2 211.34 226.2 213.98 221.99 213.93 217.78 213.61 213.57 213.03 209.36 212.25 209.36 208.09 209.36 203.93 209.36 199.77 209.36 195.62 209.36 191.46 209.36 187.3 209.36 183.14 209.36 178.98 213.5 179.75 217.64 180.32 221.77 180.65 225.92 180.72 225.92 183.36 225.92 186 225.92 186 225.92 186M229.76 180.54Q232.35 180.3 234.94 179.96 234.94 183.46 234.94 186.96 234.94 190.46 234.94 193.95 234.94 197.45 234.94 200.95 234.94 204.45 234.94 207.95 237.61 207.52 240.29 207 242.96 206.42 245.64 205.8 245.64 208.44 245.64 211.08 241.67 211.99 237.7 212.78 233.73 213.4 229.76 213.81 229.76 209.65 229.76 205.49 229.76 201.33 229.76 197.17 229.76 193.02 229.76 188.86 229.76 184.7 229.76 180.54 229.76 180.54 229.76 180.54M265.95 178.65Q263.09 179.09 260.23 179.62 257.38 180.23 254.52 180.9 254.52 185.27 254.52 189.64 257.18 189.01 259.85 188.44 262.51 187.93 265.18 187.5 265.18 190.09 265.18 192.68 262.51 193.11 259.85 193.62 257.18 194.19 254.52 194.82 254.52 199.21 254.52 203.61 257.45 202.93 260.38 202.3 263.31 201.76 266.24 201.32 266.24 203.96 266.24 206.6 262.02 207.27 257.81 208.12 253.6 209.11 249.39 210.15 249.39 205.99 249.39 201.84 249.39 197.68 249.39 193.52 249.39 189.36 249.39 185.2 249.39 181.04 249.39 176.88 253.53 175.86 257.67 174.89 261.81 174.04 265.95 173.37 265.95 176.01 265.95 178.65 265.95 178.65 265.95 178.65M283.61 182.49C283.61 181.14 283.25 179.96 282.52 178.93 281.81 177.91 280.77 177.34 279.44 177.24 277.93 177.15 276.83 177.52 276.17 178.3 275.5 179.1 275.16 180.11 275.16 181.32 275.16 182.44 275.51 183.29 276.22 183.87 276.92 184.46 277.79 184.98 278.83 185.43 279.88 185.9 281.01 186.38 282.24 186.89 283.48 187.41 284.61 188.12 285.64 189.01 286.69 189.91 287.56 191.07 288.27 192.47 288.97 193.88 289.32 195.69 289.32 197.9 289.32 199.63 289.07 201.07 288.56 202.23 288.04 203.38 287.33 204.29 286.44 204.95 285.55 205.63 284.52 206.09 283.35 206.34 282.18 206.6 280.94 206.68 279.63 206.58 278.14 206.49 276.77 206.26 275.5 205.85 274.22 205.47 273.12 204.89 272.19 204.09 271.26 203.3 270.52 202.28 269.98 201.01 269.43 199.75 269.16 198.19 269.16 196.33Q271.89 196.14 274.64 196.06C274.8 197.76 275.3 199.07 276.14 200.02 277 200.98 278.14 201.5 279.63 201.59 280.17 201.63 280.7 201.56 281.24 201.4 281.76 201.24 282.23 200.99 282.64 200.64 283.07 200.28 283.39 199.82 283.66 199.25 283.92 198.67 284.04 198 284.04 197.24 284.04 195.89 283.7 194.83 283.01 194.06 282.32 193.29 281.45 192.66 280.42 192.17 279.38 191.68 278.26 191.27 277.06 190.9 275.86 190.55 274.74 190.06 273.7 189.4 272.66 188.75 271.8 187.85 271.11 186.68 270.42 185.51 270.08 183.84 270.08 181.67 270.08 180.16 270.31 178.82 270.77 177.62 271.24 176.44 271.88 175.45 272.72 174.64 273.55 173.85 274.51 173.25 275.62 172.85 276.72 172.46 277.93 172.3 279.24 172.37 280.83 172.49 282.24 172.87 283.44 173.49 284.64 174.13 285.63 174.94 286.42 175.94 287.2 176.92 287.79 178.05 288.17 179.31 288.56 180.56 288.75 181.89 288.75 183.3Q286.18 182.86 283.61 182.49 283.61 182.49 283.61 182.49M298.11 214.53Q296.2 214.07 294.32 213.62 294.72 211.17 295.13 208.73 294.52 208.58 293.93 208.45 293.93 205.28 293.93 202.11 296.74 202.77 299.55 203.47 299.55 206.25 299.55 209.04 298.83 211.79 298.11 214.53 298.11 214.53 298.11 214.53M336.22 202.46C336.06 205.9 335.16 208.75 333.51 210.95 331.86 213.12 329.44 214.3 326.24 214.42 324.14 214.41 322.42 213.88 321.02 212.85 319.63 211.81 318.52 210.44 317.69 208.78 316.86 207.11 316.26 205.22 315.89 203.11 315.52 200.98 315.33 198.79 315.33 196.52 315.33 194.31 315.5 192.21 315.82 190.21 316.14 188.2 316.7 186.46 317.55 184.98 318.38 183.48 319.49 182.33 320.88 181.5 322.27 180.64 324.06 180.23 326.24 180.24 327.77 180.2 329.13 180.39 330.32 180.81 331.5 181.2 332.51 181.81 333.34 182.65 334.17 183.47 334.83 184.5 335.31 185.75 335.79 186.98 336.09 188.4 336.22 189.98Q333.56 190.35 330.89 190.62C330.8 189.92 330.64 189.26 330.44 188.62 330.23 187.98 329.95 187.43 329.6 186.95 329.24 186.47 328.8 186.11 328.25 185.85 327.71 185.58 327.04 185.45 326.24 185.47 325.02 185.47 324.04 185.79 323.27 186.43 322.52 187.05 321.95 187.9 321.52 188.99 321.11 190.06 320.83 191.3 320.72 192.7 320.58 194.09 320.52 195.56 320.52 197.1 320.52 198.54 320.58 199.97 320.69 201.41 320.8 202.84 321.06 204.13 321.45 205.27 321.86 206.42 322.43 207.36 323.19 208.1 323.94 208.82 324.95 209.19 326.24 209.19 327.07 209.17 327.76 208.98 328.32 208.62 328.88 208.25 329.35 207.79 329.72 207.2 330.08 206.62 330.35 205.97 330.53 205.27 330.71 204.57 330.83 203.85 330.89 203.1Q333.56 202.83 336.22 202.46 336.22 202.46 336.22 202.46M357.87 208.23Q356.62 204.39 355.37 200.55 352.8 201.18 350.23 201.82 347.67 202.45 345.1 203.07 343.85 207.49 342.6 211.9 339.92 212.46 337.23 212.96 338.52 208.57 339.82 204.16 341.11 199.74 342.41 195.31 343.7 190.86 345 186.4 346.3 181.93 347.6 177.46 350.24 176.8 352.88 176.15 354.18 179.98 355.49 183.83 356.8 187.68 358.11 191.54 359.41 195.41 360.72 199.3 362.03 203.21 363.34 207.13 360.6 207.65 357.87 208.23 357.87 208.23 357.87 208.23M350.24 183.91Q349.34 187.35 348.44 190.79 347.54 194.23 346.64 197.67 350.24 196.77 353.84 195.88 352.94 192.89 352.04 189.9 351.14 186.9 350.24 183.91 350.24 183.91 350.24 183.91" id="PANEL-PRE-RELEASE-HA" fill="#005FD2"></path>
  </g>
  </svg>