<?xml version="1.0" encoding="UTF-8" standalone="no"?>
<svg width="500px" height="300px" viewBox="0 0 500 300" version="1.1" xmlns="http://www.w3.org/2000/svg" xmlns:xlink="http://www.w3.org/1999/xlink" style="background: #000000;">
    <!-- Generator: Sketch 49 (51002) - http://www.bohemiancoding.com/sketch -->
    <title>Artboard</title>
    <desc>Created with Sketch.</desc>
    <defs></defs>
    <g id="Artboard" stroke="none" stroke-width="1" fill="none" fill-rule="evenodd">
        <path d="M-54.844,100 L-54.844,48.16 L-38.284,48.16 C-25.972,48.16 -20.644,56.008 -20.644,63.928 C-20.644,71.848 -25.972,79.552 -38.284,79.552 L-49.156,79.552 L-49.156,100 L-54.844,100 Z M-49.156,74.944 L-38.284,74.944 C-28.924,74.944 -26.332,69.328 -26.332,63.928 C-26.332,58.096 -28.924,52.768 -38.284,52.768 L-49.156,52.768 L-49.156,74.944 Z M2.612,100.936 C-7.828,100.936 -14.02,92.872 -14.02,81.856 C-14.02,70.552 -6.604,63.064 2.612,63.064 C11.828,63.064 19.028,70.768 18.74,83.152 L-8.764,83.152 C-8.548,90.28 -4.228,96.616 2.684,96.616 C8.372,96.616 11.756,92.656 12.98,88.84 L17.948,89.776 C16.436,95.104 11.684,100.936 2.612,100.936 Z M-8.476,79.048 L13.268,79.048 C12.908,72.352 8.372,67.312 2.612,67.312 C-3.004,67.312 -7.684,72.136 -8.476,79.048 Z M41.852,100.936 C31.412,100.936 25.22,92.872 25.22,81.856 C25.22,70.552 32.636,63.064 41.852,63.064 C51.068,63.064 58.268,70.768 57.98,83.152 L30.476,83.152 C30.692,90.28 35.012,96.616 41.924,96.616 C47.612,96.616 50.996,92.656 52.22,88.84 L57.188,89.776 C55.676,95.104 50.924,100.936 41.852,100.936 Z M30.764,79.048 L52.508,79.048 C52.148,72.352 47.612,67.312 41.852,67.312 C36.236,67.312 31.556,72.136 30.764,79.048 Z M66.332,100 L66.332,64 L70.796,64 L71.3,70.264 L71.444,70.264 C73.388,65.728 77.492,63.064 81.668,63.064 C83.9,63.064 85.988,63.568 87.068,64.216 L87.068,68.248 C85.988,67.816 84.116,67.384 81.884,67.384 C76.196,67.384 71.516,71.488 71.516,82.36 L71.516,100 L66.332,100 Z M91.604,83.224 L91.604,78.112 L110.756,78.112 L110.756,83.224 L91.604,83.224 Z M130.628,100.432 C124.58,100.432 121.052,97.552 121.052,89.56 L121.052,68.32 L114.284,68.32 L114.284,64 L121.052,64 L121.052,56.008 L126.236,56.008 L126.236,64 L134.372,64 L134.372,68.32 L126.236,68.32 L126.236,89.704 C126.236,94.312 127.676,96.112 131.06,96.112 C132.428,96.112 134.012,95.968 135.38,95.68 L135.38,99.64 C134.66,100 132.212,100.432 130.628,100.432 Z M156.62,100.936 C146.396,100.936 139.556,92.8 139.556,82.144 C139.556,71.344 146.396,63.064 156.62,63.064 C166.844,63.064 173.684,71.344 173.684,82.144 C173.684,92.8 166.844,100.936 156.62,100.936 Z M156.62,96.616 C163.532,96.616 168.5,89.92 168.5,82.144 C168.5,74.08 163.532,67.384 156.62,67.384 C148.988,67.384 144.74,74.08 144.74,82.144 C144.74,89.92 149.06,96.616 156.62,96.616 Z M180.884,83.224 L180.884,78.112 L200.036,78.112 L200.036,83.224 L180.884,83.224 Z M209.18,100 L209.18,48.16 L225.74,48.16 C238.052,48.16 243.38,56.008 243.38,63.928 C243.38,71.848 238.052,79.552 225.74,79.552 L214.868,79.552 L214.868,100 L209.18,100 Z M214.868,74.944 L225.74,74.944 C235.1,74.944 237.692,69.328 237.692,63.928 C237.692,58.096 235.1,52.768 225.74,52.768 L214.868,52.768 L214.868,74.944 Z M266.636,100.936 C256.196,100.936 250.004,92.872 250.004,81.856 C250.004,70.552 257.42,63.064 266.636,63.064 C275.852,63.064 283.052,70.768 282.764,83.152 L255.26,83.152 C255.476,90.28 259.796,96.616 266.708,96.616 C272.396,96.616 275.78,92.656 277.004,88.84 L281.972,89.776 C280.46,95.104 275.708,100.936 266.636,100.936 Z M255.548,79.048 L277.292,79.048 C276.932,72.352 272.396,67.312 266.636,67.312 C261.02,67.312 256.34,72.136 255.548,79.048 Z M305.876,100.936 C295.436,100.936 289.244,92.872 289.244,81.856 C289.244,70.552 296.66,63.064 305.876,63.064 C315.092,63.064 322.292,70.768 322.004,83.152 L294.5,83.152 C294.716,90.28 299.036,96.616 305.948,96.616 C311.636,96.616 315.02,92.656 316.244,88.84 L321.212,89.776 C319.7,95.104 314.948,100.936 305.876,100.936 Z M294.788,79.048 L316.532,79.048 C316.172,72.352 311.636,67.312 305.876,67.312 C300.26,67.312 295.58,72.136 294.788,79.048 Z M330.356,100 L330.356,64 L334.82,64 L335.324,70.264 L335.468,70.264 C337.412,65.728 341.516,63.064 345.692,63.064 C347.924,63.064 350.012,63.568 351.092,64.216 L351.092,68.248 C350.012,67.816 348.14,67.384 345.908,67.384 C340.22,67.384 335.54,71.488 335.54,82.36 L335.54,100 L330.356,100 Z M64.424,172 L49.88,120.16 L56.144,120.16 L67.952,165.16 L68.312,165.16 L80.696,120.16 L87.896,120.16 L99.632,165.016 L99.92,165.016 L112.376,120.16 L118.424,120.16 L103.304,172 L96.104,172 L84.44,126.712 L84.008,126.712 L71.48,172 L64.424,172 Z M137.864,172.936 C127.424,172.936 121.232,164.872 121.232,153.856 C121.232,142.552 128.648,135.064 137.864,135.064 C147.08,135.064 154.28,142.768 153.992,155.152 L126.488,155.152 C126.704,162.28 131.024,168.616 137.936,168.616 C143.624,168.616 147.008,164.656 148.232,160.84 L153.2,161.776 C151.688,167.104 146.936,172.936 137.864,172.936 Z M126.776,151.048 L148.52,151.048 C148.16,144.352 143.624,139.312 137.864,139.312 C132.248,139.312 127.568,144.136 126.776,151.048 Z M179.408,172.936 C173.792,172.936 169.904,170.416 167.528,166.672 L167.384,166.672 L166.808,172 L162.344,172 L162.344,120.16 L167.528,120.16 L167.528,141.328 L167.672,141.328 C170.192,137.368 173.936,135.064 179.48,135.064 C188.12,135.064 194.816,143.128 194.816,153.856 C194.816,164.008 188.48,172.936 179.408,172.936 Z M178.544,168.616 C185.672,168.616 189.56,162.28 189.56,153.856 C189.56,146.08 185.672,139.312 178.544,139.312 C171.128,139.312 167.24,145.936 167.312,153.856 C167.384,162.28 171.128,168.616 178.544,168.616 Z M217.64,178.192 L239.744,120.232 L243.704,120.232 L221.672,178.192 L217.64,178.192 Z" id="Peer-to-Peer-Web-/" fill="#FFFFFF"></path>
        <path d="M443.156,100 L443.156,48.16 L459.716,48.16 C472.028,48.16 477.356,56.008 477.356,63.928 C477.356,71.848 472.028,79.552 459.716,79.552 L448.844,79.552 L448.844,100 L443.156,100 Z M448.844,74.944 L459.716,74.944 C469.076,74.944 471.668,69.328 471.668,63.928 C471.668,58.096 469.076,52.768 459.716,52.768 L448.844,52.768 L448.844,74.944 Z M500.612,100.936 C490.172,100.936 483.98,92.872 483.98,81.856 C483.98,70.552 491.396,63.064 500.612,63.064 C509.828,63.064 517.028,70.768 516.74,83.152 L489.236,83.152 C489.452,90.28 493.772,96.616 500.684,96.616 C506.372,96.616 509.756,92.656 510.98,88.84 L515.948,89.776 C514.436,95.104 509.684,100.936 500.612,100.936 Z M489.524,79.048 L511.268,79.048 C510.908,72.352 506.372,67.312 500.612,67.312 C494.996,67.312 490.316,72.136 489.524,79.048 Z M539.852,100.936 C529.412,100.936 523.22,92.872 523.22,81.856 C523.22,70.552 530.636,63.064 539.852,63.064 C549.068,63.064 556.268,70.768 555.98,83.152 L528.476,83.152 C528.692,90.28 533.012,96.616 539.924,96.616 C545.612,96.616 548.996,92.656 550.22,88.84 L555.188,89.776 C553.676,95.104 548.924,100.936 539.852,100.936 Z M528.764,79.048 L550.508,79.048 C550.148,72.352 545.612,67.312 539.852,67.312 C534.236,67.312 529.556,72.136 528.764,79.048 Z M564.332,100 L564.332,64 L568.796,64 L569.3,70.264 L569.444,70.264 C571.388,65.728 575.492,63.064 579.668,63.064 C581.9,63.064 583.988,63.568 585.068,64.216 L585.068,68.248 C583.988,67.816 582.116,67.384 579.884,67.384 C574.196,67.384 569.516,71.488 569.516,82.36 L569.516,100 L564.332,100 Z M589.604,83.224 L589.604,78.112 L608.756,78.112 L608.756,83.224 L589.604,83.224 Z M628.628,100.432 C622.58,100.432 619.052,97.552 619.052,89.56 L619.052,68.32 L612.284,68.32 L612.284,64 L619.052,64 L619.052,56.008 L624.236,56.008 L624.236,64 L632.372,64 L632.372,68.32 L624.236,68.32 L624.236,89.704 C624.236,94.312 625.676,96.112 629.06,96.112 C630.428,96.112 632.012,95.968 633.38,95.68 L633.38,99.64 C632.66,100 630.212,100.432 628.628,100.432 Z M654.62,100.936 C644.396,100.936 637.556,92.8 637.556,82.144 C637.556,71.344 644.396,63.064 654.62,63.064 C664.844,63.064 671.684,71.344 671.684,82.144 C671.684,92.8 664.844,100.936 654.62,100.936 Z M654.62,96.616 C661.532,96.616 666.5,89.92 666.5,82.144 C666.5,74.08 661.532,67.384 654.62,67.384 C646.988,67.384 642.74,74.08 642.74,82.144 C642.74,89.92 647.06,96.616 654.62,96.616 Z M678.884,83.224 L678.884,78.112 L698.036,78.112 L698.036,83.224 L678.884,83.224 Z M707.18,100 L707.18,48.16 L723.74,48.16 C736.052,48.16 741.38,56.008 741.38,63.928 C741.38,71.848 736.052,79.552 723.74,79.552 L712.868,79.552 L712.868,100 L707.18,100 Z M712.868,74.944 L723.74,74.944 C733.1,74.944 735.692,69.328 735.692,63.928 C735.692,58.096 733.1,52.768 723.74,52.768 L712.868,52.768 L712.868,74.944 Z M764.636,100.936 C754.196,100.936 748.004,92.872 748.004,81.856 C748.004,70.552 755.42,63.064 764.636,63.064 C773.852,63.064 781.052,70.768 780.764,83.152 L753.26,83.152 C753.476,90.28 757.796,96.616 764.708,96.616 C770.396,96.616 773.78,92.656 775.004,88.84 L779.972,89.776 C778.46,95.104 773.708,100.936 764.636,100.936 Z M753.548,79.048 L775.292,79.048 C774.932,72.352 770.396,67.312 764.636,67.312 C759.02,67.312 754.34,72.136 753.548,79.048 Z M803.876,100.936 C793.436,100.936 787.244,92.872 787.244,81.856 C787.244,70.552 794.66,63.064 803.876,63.064 C813.092,63.064 820.292,70.768 820.004,83.152 L792.5,83.152 C792.716,90.28 797.036,96.616 803.948,96.616 C809.636,96.616 813.02,92.656 814.244,88.84 L819.212,89.776 C817.7,95.104 812.948,100.936 803.876,100.936 Z M792.788,79.048 L814.532,79.048 C814.172,72.352 809.636,67.312 803.876,67.312 C798.26,67.312 793.58,72.136 792.788,79.048 Z M828.356,100 L828.356,64 L832.82,64 L833.324,70.264 L833.468,70.264 C835.412,65.728 839.516,63.064 843.692,63.064 C845.924,63.064 848.012,63.568 849.092,64.216 L849.092,68.248 C848.012,67.816 846.14,67.384 843.908,67.384 C838.22,67.384 833.54,71.488 833.54,82.36 L833.54,100 L828.356,100 Z M562.424,172 L547.88,120.16 L554.144,120.16 L565.952,165.16 L566.312,165.16 L578.696,120.16 L585.896,120.16 L597.632,165.016 L597.92,165.016 L610.376,120.16 L616.424,120.16 L601.304,172 L594.104,172 L582.44,126.712 L582.008,126.712 L569.48,172 L562.424,172 Z M635.864,172.936 C625.424,172.936 619.232,164.872 619.232,153.856 C619.232,142.552 626.648,135.064 635.864,135.064 C645.08,135.064 652.28,142.768 651.992,155.152 L624.488,155.152 C624.704,162.28 629.024,168.616 635.936,168.616 C641.624,168.616 645.008,164.656 646.232,160.84 L651.2,161.776 C649.688,167.104 644.936,172.936 635.864,172.936 Z M624.776,151.048 L646.52,151.048 C646.16,144.352 641.624,139.312 635.864,139.312 C630.248,139.312 625.568,144.136 624.776,151.048 Z M677.408,172.936 C671.792,172.936 667.904,170.416 665.528,166.672 L665.384,166.672 L664.808,172 L660.344,172 L660.344,120.16 L665.528,120.16 L665.528,141.328 L665.672,141.328 C668.192,137.368 671.936,135.064 677.48,135.064 C686.12,135.064 692.816,143.128 692.816,153.856 C692.816,164.008 686.48,172.936 677.408,172.936 Z M676.544,168.616 C683.672,168.616 687.56,162.28 687.56,153.856 C687.56,146.08 683.672,139.312 676.544,139.312 C669.128,139.312 665.24,145.936 665.312,153.856 C665.384,162.28 669.128,168.616 676.544,168.616 Z M715.64,178.192 L737.744,120.232 L741.704,120.232 L719.672,178.192 L715.64,178.192 Z" id="Peer-to-Peer-Web-/" fill="#FFFFFF"></path>
        <path d="M84.536,256.234 C83.168,256.234 81.728,255.46 81.728,253.786 C81.728,251.536 84.41,250.78 87.65,250.672 L87.65,250.06 C87.65,248.494 86.696,247.828 85.454,247.828 C84.14,247.828 83.456,248.656 83.204,249.52 L81.926,249.304 C82.358,247.792 83.672,246.766 85.454,246.766 C87.38,246.766 88.946,247.864 88.946,250.078 L88.946,256 L87.884,256 L87.758,254.668 L87.704,254.668 C86.948,255.694 86.012,256.234 84.536,256.234 Z M84.914,255.226 C86.336,255.226 87.686,253.984 87.686,252.166 L87.686,251.698 C85.4,251.788 83.042,252.112 83.042,253.696 C83.042,254.794 83.924,255.226 84.914,255.226 Z M91.502,256 L91.502,247 L92.6,247 L92.762,248.638 L92.816,248.638 C93.338,247.702 94.238,246.766 95.876,246.766 C97.604,246.766 98.738,247.702 98.738,250.132 L98.738,256 L97.442,256 L97.442,250.114 C97.442,248.476 96.704,247.828 95.516,247.828 C93.95,247.828 92.798,249.466 92.798,251.59 L92.798,256 L91.502,256 Z M105.956,244.696 L105.956,243.04 L107.414,243.04 L107.414,244.696 L105.956,244.696 Z M106.046,256 L106.046,247 L107.36,247 L107.36,256 L106.046,256 Z M109.916,256 L109.916,247 L111.014,247 L111.176,248.638 L111.23,248.638 C111.752,247.702 112.652,246.766 114.29,246.766 C116.018,246.766 117.152,247.702 117.152,250.132 L117.152,256 L115.856,256 L115.856,250.114 C115.856,248.476 115.118,247.828 113.93,247.828 C112.364,247.828 111.212,249.466 111.212,251.59 L111.212,256 L109.916,256 Z M122.624,256.108 C121.112,256.108 120.23,255.388 120.23,253.39 L120.23,248.08 L118.538,248.08 L118.538,247 L120.23,247 L120.23,245.002 L121.526,245.002 L121.526,247 L123.56,247 L123.56,248.08 L121.526,248.08 L121.526,253.426 C121.526,254.578 121.886,255.028 122.732,255.028 C123.074,255.028 123.47,254.992 123.812,254.92 L123.812,255.91 C123.632,256 123.02,256.108 122.624,256.108 Z M129.014,256.234 C126.404,256.234 124.856,254.218 124.856,251.464 C124.856,248.638 126.71,246.766 129.014,246.766 C131.318,246.766 133.118,248.692 133.046,251.788 L126.17,251.788 C126.224,253.57 127.304,255.154 129.032,255.154 C130.454,255.154 131.3,254.164 131.606,253.21 L132.848,253.444 C132.47,254.776 131.282,256.234 129.014,256.234 Z M126.242,250.762 L131.678,250.762 C131.588,249.088 130.454,247.828 129.014,247.828 C127.61,247.828 126.44,249.034 126.242,250.762 Z M135.134,256 L135.134,247 L136.25,247 L136.376,248.566 L136.412,248.566 C136.898,247.432 137.924,246.766 138.968,246.766 C139.526,246.766 140.048,246.892 140.318,247.054 L140.318,248.062 C140.048,247.954 139.58,247.846 139.022,247.846 C137.6,247.846 136.43,248.872 136.43,251.59 L136.43,256 L135.134,256 Z M141.83,256 L141.83,247 L142.928,247 L143.09,248.638 L143.144,248.638 C143.666,247.702 144.566,246.766 146.204,246.766 C147.932,246.766 149.066,247.702 149.066,250.132 L149.066,256 L147.77,256 L147.77,250.114 C147.77,248.476 147.032,247.828 145.844,247.828 C144.278,247.828 143.126,249.466 143.126,251.59 L143.126,256 L141.83,256 Z M154.016,256.234 C152.648,256.234 151.208,255.46 151.208,253.786 C151.208,251.536 153.89,250.78 157.13,250.672 L157.13,250.06 C157.13,248.494 156.176,247.828 154.934,247.828 C153.62,247.828 152.936,248.656 152.684,249.52 L151.406,249.304 C151.838,247.792 153.152,246.766 154.934,246.766 C156.86,246.766 158.426,247.864 158.426,250.078 L158.426,256 L157.364,256 L157.238,254.668 L157.184,254.668 C156.428,255.694 155.492,256.234 154.016,256.234 Z M154.394,255.226 C155.816,255.226 157.166,253.984 157.166,252.166 L157.166,251.698 C154.88,251.788 152.522,252.112 152.522,253.696 C152.522,254.794 153.404,255.226 154.394,255.226 Z M163.898,256.108 C162.386,256.108 161.504,255.388 161.504,253.39 L161.504,248.08 L159.812,248.08 L159.812,247 L161.504,247 L161.504,245.002 L162.8,245.002 L162.8,247 L164.834,247 L164.834,248.08 L162.8,248.08 L162.8,253.426 C162.8,254.578 163.16,255.028 164.006,255.028 C164.348,255.028 164.744,254.992 165.086,254.92 L165.086,255.91 C164.906,256 164.294,256.108 163.898,256.108 Z M166.508,244.696 L166.508,243.04 L167.966,243.04 L167.966,244.696 L166.508,244.696 Z M166.598,256 L166.598,247 L167.912,247 L167.912,256 L166.598,256 Z M174.266,256.234 C171.71,256.234 170,254.2 170,251.536 C170,248.836 171.71,246.766 174.266,246.766 C176.822,246.766 178.532,248.836 178.532,251.536 C178.532,254.2 176.822,256.234 174.266,256.234 Z M174.266,255.154 C175.994,255.154 177.236,253.48 177.236,251.536 C177.236,249.52 175.994,247.846 174.266,247.846 C172.358,247.846 171.296,249.52 171.296,251.536 C171.296,253.48 172.376,255.154 174.266,255.154 Z M180.638,256 L180.638,247 L181.736,247 L181.898,248.638 L181.952,248.638 C182.474,247.702 183.374,246.766 185.012,246.766 C186.74,246.766 187.874,247.702 187.874,250.132 L187.874,256 L186.578,256 L186.578,250.114 C186.578,248.476 185.84,247.828 184.652,247.828 C183.086,247.828 181.934,249.466 181.934,251.59 L181.934,256 L180.638,256 Z M192.824,256.234 C191.456,256.234 190.016,255.46 190.016,253.786 C190.016,251.536 192.698,250.78 195.938,250.672 L195.938,250.06 C195.938,248.494 194.984,247.828 193.742,247.828 C192.428,247.828 191.744,248.656 191.492,249.52 L190.214,249.304 C190.646,247.792 191.96,246.766 193.742,246.766 C195.668,246.766 197.234,247.864 197.234,250.078 L197.234,256 L196.172,256 L196.046,254.668 L195.992,254.668 C195.236,255.694 194.3,256.234 192.824,256.234 Z M193.202,255.226 C194.624,255.226 195.974,253.984 195.974,252.166 L195.974,251.698 C193.688,251.788 191.33,252.112 191.33,253.696 C191.33,254.794 192.212,255.226 193.202,255.226 Z M199.79,256 L199.79,243.04 L201.086,243.04 L201.086,256 L199.79,256 Z M212.174,256.234 C209.708,256.234 207.926,254.308 207.926,251.482 C207.926,248.692 209.708,246.766 212.174,246.766 C214.298,246.766 215.522,247.954 216.008,249.268 L214.676,249.484 C214.46,248.854 213.74,247.828 212.174,247.828 C210.374,247.828 209.24,249.484 209.24,251.482 C209.24,253.552 210.374,255.154 212.174,255.154 C213.668,255.154 214.496,254.074 214.748,253.228 L216.08,253.444 C215.648,254.884 214.37,256.234 212.174,256.234 Z M221.984,256.234 C219.428,256.234 217.718,254.2 217.718,251.536 C217.718,248.836 219.428,246.766 221.984,246.766 C224.54,246.766 226.25,248.836 226.25,251.536 C226.25,254.2 224.54,256.234 221.984,256.234 Z M221.984,255.154 C223.712,255.154 224.954,253.48 224.954,251.536 C224.954,249.52 223.712,247.846 221.984,247.846 C220.076,247.846 219.014,249.52 219.014,251.536 C219.014,253.48 220.094,255.154 221.984,255.154 Z M228.356,256 L228.356,247 L229.49,247 L229.58,248.548 L229.616,248.548 C230.012,247.738 231.02,246.838 232.442,246.838 C233.828,246.838 234.656,247.486 234.98,248.62 L235.016,248.62 C235.628,247.576 236.69,246.838 238.076,246.838 C239.84,246.838 240.974,248.026 240.974,249.934 L240.974,256 L239.66,256 L239.66,250.24 C239.66,248.8 239.102,247.9 237.86,247.9 C236.222,247.9 235.304,249.448 235.304,251.626 L235.304,256 L234.008,256 L234.008,250.24 C234.008,248.674 233.306,247.9 232.154,247.9 C230.678,247.9 229.652,249.448 229.652,251.644 L229.652,256 L228.356,256 Z M243.53,256 L243.53,247 L244.664,247 L244.754,248.548 L244.79,248.548 C245.186,247.738 246.194,246.838 247.616,246.838 C249.002,246.838 249.83,247.486 250.154,248.62 L250.19,248.62 C250.802,247.576 251.864,246.838 253.25,246.838 C255.014,246.838 256.148,248.026 256.148,249.934 L256.148,256 L254.834,256 L254.834,250.24 C254.834,248.8 254.276,247.9 253.034,247.9 C251.396,247.9 250.478,249.448 250.478,251.626 L250.478,256 L249.182,256 L249.182,250.24 C249.182,248.674 248.48,247.9 247.328,247.9 C245.852,247.9 244.826,249.448 244.826,251.644 L244.826,256 L243.53,256 Z M261.566,256.234 C259.91,256.234 258.704,255.136 258.704,252.832 L258.704,247 L260,247 L260,252.67 C260,254.344 260.684,255.118 261.854,255.118 C263.636,255.118 264.788,253.408 264.788,251.374 L264.788,247 L266.084,247 L266.084,256 L264.986,256 L264.824,254.362 L264.77,254.362 C264.284,255.226 263.366,256.234 261.566,256.234 Z M268.64,256 L268.64,247 L269.738,247 L269.9,248.638 L269.954,248.638 C270.476,247.702 271.376,246.766 273.014,246.766 C274.742,246.766 275.876,247.702 275.876,250.132 L275.876,256 L274.58,256 L274.58,250.114 C274.58,248.476 273.842,247.828 272.654,247.828 C271.088,247.828 269.936,249.466 269.936,251.59 L269.936,256 L268.64,256 Z M278.342,244.696 L278.342,243.04 L279.8,243.04 L279.8,244.696 L278.342,244.696 Z M278.432,256 L278.432,247 L279.746,247 L279.746,256 L278.432,256 Z M285.218,256.108 C283.706,256.108 282.824,255.388 282.824,253.39 L282.824,248.08 L281.132,248.08 L281.132,247 L282.824,247 L282.824,245.002 L284.12,245.002 L284.12,247 L286.154,247 L286.154,248.08 L284.12,248.08 L284.12,253.426 C284.12,254.578 284.48,255.028 285.326,255.028 C285.668,255.028 286.064,254.992 286.406,254.92 L286.406,255.91 C286.226,256 285.614,256.108 285.218,256.108 Z M288.17,259.654 L288.17,258.484 C289.034,258.43 289.466,258.286 290.078,256.828 L290.348,256.162 L286.748,247 L288.188,247 L291.014,254.686 L293.93,247 L295.37,247 L291.194,257.44 C290.564,259.024 289.592,259.654 288.242,259.654 L288.17,259.654 Z M301.508,256 L301.508,243.04 L302.804,243.04 L302.804,248.458 L302.84,248.458 C303.38,247.648 304.334,246.766 305.936,246.766 C307.844,246.766 308.78,247.972 308.78,249.898 L308.78,256 L307.484,256 L307.484,249.898 C307.484,248.458 306.818,247.828 305.63,247.828 C303.884,247.828 302.804,249.34 302.804,251.554 L302.804,256 L301.508,256 Z M315.134,256.234 C312.578,256.234 310.868,254.2 310.868,251.536 C310.868,248.836 312.578,246.766 315.134,246.766 C317.69,246.766 319.4,248.836 319.4,251.536 C319.4,254.2 317.69,256.234 315.134,256.234 Z M315.134,255.154 C316.862,255.154 318.104,253.48 318.104,251.536 C318.104,249.52 316.862,247.846 315.134,247.846 C313.226,247.846 312.164,249.52 312.164,251.536 C312.164,253.48 313.244,255.154 315.134,255.154 Z M324.638,256.234 C322.676,256.234 321.398,255.118 321.02,253.39 L322.262,253.174 C322.604,254.452 323.288,255.208 324.692,255.208 C325.898,255.208 326.762,254.614 326.762,253.606 C326.762,252.418 325.556,252.346 324.152,251.968 C322.496,251.536 321.344,250.87 321.344,249.43 C321.344,247.864 322.712,246.766 324.638,246.766 C326.222,246.766 327.41,247.522 327.878,249.07 L326.636,249.304 C326.33,248.35 325.682,247.774 324.548,247.774 C323.522,247.774 322.604,248.26 322.604,249.268 C322.604,250.276 323.486,250.546 324.656,250.852 C326.582,251.356 328.04,251.752 328.04,253.444 C328.04,255.082 326.636,256.234 324.638,256.234 Z M333.026,256.108 C331.514,256.108 330.632,255.388 330.632,253.39 L330.632,248.08 L328.94,248.08 L328.94,247 L330.632,247 L330.632,245.002 L331.928,245.002 L331.928,247 L333.962,247 L333.962,248.08 L331.928,248.08 L331.928,253.426 C331.928,254.578 332.288,255.028 333.134,255.028 C333.476,255.028 333.872,254.992 334.214,254.92 L334.214,255.91 C334.034,256 333.422,256.108 333.026,256.108 Z M335.636,244.696 L335.636,243.04 L337.094,243.04 L337.094,244.696 L335.636,244.696 Z M335.726,256 L335.726,247 L337.04,247 L337.04,256 L335.726,256 Z M339.596,256 L339.596,247 L340.694,247 L340.856,248.638 L340.91,248.638 C341.432,247.702 342.332,246.766 343.97,246.766 C345.698,246.766 346.832,247.702 346.832,250.132 L346.832,256 L345.536,256 L345.536,250.114 C345.536,248.476 344.798,247.828 343.61,247.828 C342.044,247.828 340.892,249.466 340.892,251.59 L340.892,256 L339.596,256 Z M353.06,259.672 C350.954,259.672 349.55,258.376 349.154,256.918 L350.522,256.72 C350.846,257.692 351.62,258.628 353.078,258.628 C354.734,258.628 355.796,257.494 355.796,255.406 L355.796,254.344 L355.742,254.344 C355.238,255.118 354.302,255.874 352.844,255.874 C350.612,255.874 349.028,253.912 349.028,251.32 C349.028,248.782 350.666,246.766 352.97,246.766 C354.464,246.766 355.346,247.648 355.76,248.368 L355.796,248.368 L355.922,247 L357.092,247 L357.092,255.64 C357.092,258.286 355.328,259.672 353.06,259.672 Z M353.096,254.776 C354.842,254.776 355.796,253.336 355.796,251.32 C355.796,249.43 354.842,247.846 353.096,247.846 C351.278,247.846 350.306,249.43 350.324,251.32 C350.342,253.336 351.278,254.776 353.096,254.776 Z M364.4,256 L364.4,247 L365.516,247 L365.642,248.566 L365.678,248.566 C366.164,247.432 367.19,246.766 368.234,246.766 C368.792,246.766 369.314,246.892 369.584,247.054 L369.584,248.062 C369.314,247.954 368.846,247.846 368.288,247.846 C366.866,247.846 365.696,248.872 365.696,251.59 L365.696,256 L364.4,256 Z M374.786,256.234 C372.176,256.234 370.628,254.218 370.628,251.464 C370.628,248.638 372.482,246.766 374.786,246.766 C377.09,246.766 378.89,248.692 378.818,251.788 L371.942,251.788 C371.996,253.57 373.076,255.154 374.804,255.154 C376.226,255.154 377.072,254.164 377.378,253.21 L378.62,253.444 C378.242,254.776 377.054,256.234 374.786,256.234 Z M372.014,250.762 L377.45,250.762 C377.36,249.088 376.226,247.828 374.786,247.828 C373.382,247.828 372.212,249.034 372.014,250.762 Z M380.906,256 L380.906,243.04 L382.202,243.04 L382.202,256 L380.906,256 Z M387.152,256.234 C385.784,256.234 384.344,255.46 384.344,253.786 C384.344,251.536 387.026,250.78 390.266,250.672 L390.266,250.06 C390.266,248.494 389.312,247.828 388.07,247.828 C386.756,247.828 386.072,248.656 385.82,249.52 L384.542,249.304 C384.974,247.792 386.288,246.766 388.07,246.766 C389.996,246.766 391.562,247.864 391.562,250.078 L391.562,256 L390.5,256 L390.374,254.668 L390.32,254.668 C389.564,255.694 388.628,256.234 387.152,256.234 Z M387.53,255.226 C388.952,255.226 390.302,253.984 390.302,252.166 L390.302,251.698 C388.016,251.788 385.658,252.112 385.658,253.696 C385.658,254.794 386.54,255.226 387.53,255.226 Z M392.984,256 L396.242,251.5 L393.128,247 L394.64,247 L397.016,250.546 L399.266,247 L400.886,247 L397.772,251.446 L401.084,256 L399.554,256 L396.998,252.436 L394.478,256 L392.984,256 Z M406.178,256.234 C403.568,256.234 402.02,254.218 402.02,251.464 C402.02,248.638 403.874,246.766 406.178,246.766 C408.482,246.766 410.282,248.692 410.21,251.788 L403.334,251.788 C403.388,253.57 404.468,255.154 406.196,255.154 C407.618,255.154 408.464,254.164 408.77,253.21 L410.012,253.444 C409.634,254.776 408.446,256.234 406.178,256.234 Z M403.406,250.762 L408.842,250.762 C408.752,249.088 407.618,247.828 406.178,247.828 C404.774,247.828 403.604,249.034 403.406,250.762 Z M415.61,256.234 C413.396,256.234 411.776,254.146 411.776,251.464 C411.776,248.782 413.414,246.766 415.718,246.766 C417.212,246.766 418.076,247.576 418.526,248.278 L418.562,248.278 L418.562,243.04 L419.858,243.04 L419.858,256 L418.778,256 L418.67,254.614 L418.634,254.614 C418.13,255.406 417.158,256.234 415.61,256.234 Z M415.862,255.154 C417.644,255.154 418.652,253.57 418.652,251.464 C418.652,249.502 417.716,247.828 415.862,247.828 C414.08,247.828 413.072,249.484 413.09,251.464 C413.108,253.462 414.008,255.154 415.862,255.154 Z M76.688,273 L78.056,273 L75.122,282 L73.574,282 L71.414,274.584 L71.342,274.584 L69.182,282 L67.634,282 L64.7,273 L66.068,273 L68.372,280.596 L68.444,280.596 L70.658,273 L72.098,273 L74.312,280.596 L74.384,280.596 L76.688,273 Z M83.312,282.234 C80.756,282.234 79.046,280.2 79.046,277.536 C79.046,274.836 80.756,272.766 83.312,272.766 C85.868,272.766 87.578,274.836 87.578,277.536 C87.578,280.2 85.868,282.234 83.312,282.234 Z M83.312,281.154 C85.04,281.154 86.282,279.48 86.282,277.536 C86.282,275.52 85.04,273.846 83.312,273.846 C81.404,273.846 80.342,275.52 80.342,277.536 C80.342,279.48 81.422,281.154 83.312,281.154 Z M89.684,282 L89.684,273 L90.8,273 L90.926,274.566 L90.962,274.566 C91.448,273.432 92.474,272.766 93.518,272.766 C94.076,272.766 94.598,272.892 94.868,273.054 L94.868,274.062 C94.598,273.954 94.13,273.846 93.572,273.846 C92.15,273.846 90.98,274.872 90.98,277.59 L90.98,282 L89.684,282 Z M96.38,282 L96.38,269.04 L97.676,269.04 L97.676,277.734 L102.446,273 L104.048,273 L100.286,276.816 L104.192,282 L102.644,282 L99.332,277.482 L97.676,279.084 L97.676,282 L96.38,282 Z M108.8,282.234 C106.838,282.234 105.56,281.118 105.182,279.39 L106.424,279.174 C106.766,280.452 107.45,281.208 108.854,281.208 C110.06,281.208 110.924,280.614 110.924,279.606 C110.924,278.418 109.718,278.346 108.314,277.968 C106.658,277.536 105.506,276.87 105.506,275.43 C105.506,273.864 106.874,272.766 108.8,272.766 C110.384,272.766 111.572,273.522 112.04,275.07 L110.798,275.304 C110.492,274.35 109.844,273.774 108.71,273.774 C107.684,273.774 106.766,274.26 106.766,275.268 C106.766,276.276 107.648,276.546 108.818,276.852 C110.744,277.356 112.202,277.752 112.202,279.444 C112.202,281.082 110.798,282.234 108.8,282.234 Z M114.272,282 L114.272,269.04 L115.568,269.04 L115.568,274.458 L115.604,274.458 C116.144,273.648 117.098,272.766 118.7,272.766 C120.608,272.766 121.544,273.972 121.544,275.898 L121.544,282 L120.248,282 L120.248,275.898 C120.248,274.458 119.582,273.828 118.394,273.828 C116.648,273.828 115.568,275.34 115.568,277.554 L115.568,282 L114.272,282 Z M127.898,282.234 C125.342,282.234 123.632,280.2 123.632,277.536 C123.632,274.836 125.342,272.766 127.898,272.766 C130.454,272.766 132.164,274.836 132.164,277.536 C132.164,280.2 130.454,282.234 127.898,282.234 Z M127.898,281.154 C129.626,281.154 130.868,279.48 130.868,277.536 C130.868,275.52 129.626,273.846 127.898,273.846 C125.99,273.846 124.928,275.52 124.928,277.536 C124.928,279.48 126.008,281.154 127.898,281.154 Z M134.36,285.6 L134.36,273 L135.476,273 L135.602,274.422 L135.656,274.422 C136.052,273.81 136.916,272.766 138.626,272.766 C140.966,272.766 142.514,274.818 142.514,277.518 C142.514,280.29 140.876,282.234 138.536,282.234 C137.312,282.234 136.286,281.676 135.692,280.758 L135.656,280.758 L135.656,285.6 L134.36,285.6 Z M138.41,281.154 C140.192,281.154 141.164,279.588 141.164,277.482 C141.164,275.556 140.192,273.828 138.41,273.828 C136.556,273.828 135.638,275.502 135.656,277.482 C135.674,279.588 136.556,281.154 138.41,281.154 Z M147.698,282.234 C145.736,282.234 144.458,281.118 144.08,279.39 L145.322,279.174 C145.664,280.452 146.348,281.208 147.752,281.208 C148.958,281.208 149.822,280.614 149.822,279.606 C149.822,278.418 148.616,278.346 147.212,277.968 C145.556,277.536 144.404,276.87 144.404,275.43 C144.404,273.864 145.772,272.766 147.698,272.766 C149.282,272.766 150.47,273.522 150.938,275.07 L149.696,275.304 C149.39,274.35 148.742,273.774 147.608,273.774 C146.582,273.774 145.664,274.26 145.664,275.268 C145.664,276.276 146.546,276.546 147.716,276.852 C149.642,277.356 151.1,277.752 151.1,279.444 C151.1,281.082 149.696,282.234 147.698,282.234 Z M160.316,282.234 C158.948,282.234 157.508,281.46 157.508,279.786 C157.508,277.536 160.19,276.78 163.43,276.672 L163.43,276.06 C163.43,274.494 162.476,273.828 161.234,273.828 C159.92,273.828 159.236,274.656 158.984,275.52 L157.706,275.304 C158.138,273.792 159.452,272.766 161.234,272.766 C163.16,272.766 164.726,273.864 164.726,276.078 L164.726,282 L163.664,282 L163.538,280.668 L163.484,280.668 C162.728,281.694 161.792,282.234 160.316,282.234 Z M160.694,281.226 C162.116,281.226 163.466,279.984 163.466,278.166 L163.466,277.698 C161.18,277.788 158.822,278.112 158.822,279.696 C158.822,280.794 159.704,281.226 160.694,281.226 Z M167.282,282 L167.282,273 L168.38,273 L168.542,274.638 L168.596,274.638 C169.118,273.702 170.018,272.766 171.656,272.766 C173.384,272.766 174.518,273.702 174.518,276.132 L174.518,282 L173.222,282 L173.222,276.114 C173.222,274.476 172.484,273.828 171.296,273.828 C169.73,273.828 168.578,275.466 168.578,277.59 L168.578,282 L167.282,282 Z M180.386,282.234 C178.172,282.234 176.552,280.146 176.552,277.464 C176.552,274.782 178.19,272.766 180.494,272.766 C181.988,272.766 182.852,273.576 183.302,274.278 L183.338,274.278 L183.338,269.04 L184.634,269.04 L184.634,282 L183.554,282 L183.446,280.614 L183.41,280.614 C182.906,281.406 181.934,282.234 180.386,282.234 Z M180.638,281.154 C182.42,281.154 183.428,279.57 183.428,277.464 C183.428,275.502 182.492,273.828 180.638,273.828 C178.856,273.828 177.848,275.484 177.866,277.464 C177.884,279.462 178.784,281.154 180.638,281.154 Z M195.254,282.234 C193.04,282.234 191.42,280.146 191.42,277.464 C191.42,274.782 193.058,272.766 195.362,272.766 C196.856,272.766 197.72,273.576 198.17,274.278 L198.206,274.278 L198.206,269.04 L199.502,269.04 L199.502,282 L198.422,282 L198.314,280.614 L198.278,280.614 C197.774,281.406 196.802,282.234 195.254,282.234 Z M195.506,281.154 C197.288,281.154 198.296,279.57 198.296,277.464 C198.296,275.502 197.36,273.828 195.506,273.828 C193.724,273.828 192.716,275.484 192.734,277.464 C192.752,279.462 193.652,281.154 195.506,281.154 Z M201.968,270.696 L201.968,269.04 L203.426,269.04 L203.426,270.696 L201.968,270.696 Z M202.058,282 L202.058,273 L203.372,273 L203.372,282 L202.058,282 Z M209.06,282.234 C207.098,282.234 205.82,281.118 205.442,279.39 L206.684,279.174 C207.026,280.452 207.71,281.208 209.114,281.208 C210.32,281.208 211.184,280.614 211.184,279.606 C211.184,278.418 209.978,278.346 208.574,277.968 C206.918,277.536 205.766,276.87 205.766,275.43 C205.766,273.864 207.134,272.766 209.06,272.766 C210.644,272.766 211.832,273.522 212.3,275.07 L211.058,275.304 C210.752,274.35 210.104,273.774 208.97,273.774 C207.944,273.774 207.026,274.26 207.026,275.268 C207.026,276.276 207.908,276.546 209.078,276.852 C211.004,277.356 212.462,277.752 212.462,279.444 C212.462,281.082 211.058,282.234 209.06,282.234 Z M218.312,282.234 C215.846,282.234 214.064,280.308 214.064,277.482 C214.064,274.692 215.846,272.766 218.312,272.766 C220.436,272.766 221.66,273.954 222.146,275.268 L220.814,275.484 C220.598,274.854 219.878,273.828 218.312,273.828 C216.512,273.828 215.378,275.484 215.378,277.482 C215.378,279.552 216.512,281.154 218.312,281.154 C219.806,281.154 220.634,280.074 220.886,279.228 L222.218,279.444 C221.786,280.884 220.508,282.234 218.312,282.234 Z M228.104,282.234 C225.638,282.234 223.856,280.308 223.856,277.482 C223.856,274.692 225.638,272.766 228.104,272.766 C230.228,272.766 231.452,273.954 231.938,275.268 L230.606,275.484 C230.39,274.854 229.67,273.828 228.104,273.828 C226.304,273.828 225.17,275.484 225.17,277.482 C225.17,279.552 226.304,281.154 228.104,281.154 C229.598,281.154 230.426,280.074 230.678,279.228 L232.01,279.444 C231.578,280.884 230.3,282.234 228.104,282.234 Z M236.978,282.234 C235.322,282.234 234.116,281.136 234.116,278.832 L234.116,273 L235.412,273 L235.412,278.67 C235.412,280.344 236.096,281.118 237.266,281.118 C239.048,281.118 240.2,279.408 240.2,277.374 L240.2,273 L241.496,273 L241.496,282 L240.398,282 L240.236,280.362 L240.182,280.362 C239.696,281.226 238.778,282.234 236.978,282.234 Z M247.184,282.234 C245.222,282.234 243.944,281.118 243.566,279.39 L244.808,279.174 C245.15,280.452 245.834,281.208 247.238,281.208 C248.444,281.208 249.308,280.614 249.308,279.606 C249.308,278.418 248.102,278.346 246.698,277.968 C245.042,277.536 243.89,276.87 243.89,275.43 C243.89,273.864 245.258,272.766 247.184,272.766 C248.768,272.766 249.956,273.522 250.424,275.07 L249.182,275.304 C248.876,274.35 248.228,273.774 247.094,273.774 C246.068,273.774 245.15,274.26 245.15,275.268 C245.15,276.276 246.032,276.546 247.202,276.852 C249.128,277.356 250.586,277.752 250.586,279.444 C250.586,281.082 249.182,282.234 247.184,282.234 Z M252.566,270.696 L252.566,269.04 L254.024,269.04 L254.024,270.696 L252.566,270.696 Z M252.656,282 L252.656,273 L253.97,273 L253.97,282 L252.656,282 Z M260.324,282.234 C257.768,282.234 256.058,280.2 256.058,277.536 C256.058,274.836 257.768,272.766 260.324,272.766 C262.88,272.766 264.59,274.836 264.59,277.536 C264.59,280.2 262.88,282.234 260.324,282.234 Z M260.324,281.154 C262.052,281.154 263.294,279.48 263.294,277.536 C263.294,275.52 262.052,273.846 260.324,273.846 C258.416,273.846 257.354,275.52 257.354,277.536 C257.354,279.48 258.434,281.154 260.324,281.154 Z M266.696,282 L266.696,273 L267.794,273 L267.956,274.638 L268.01,274.638 C268.532,273.702 269.432,272.766 271.07,272.766 C272.798,272.766 273.932,273.702 273.932,276.132 L273.932,282 L272.636,282 L272.636,276.114 C272.636,274.476 271.898,273.828 270.71,273.828 C269.144,273.828 267.992,275.466 267.992,277.59 L267.992,282 L266.696,282 Z M279.62,282.234 C277.658,282.234 276.38,281.118 276.002,279.39 L277.244,279.174 C277.586,280.452 278.27,281.208 279.674,281.208 C280.88,281.208 281.744,280.614 281.744,279.606 C281.744,278.418 280.538,278.346 279.134,277.968 C277.478,277.536 276.326,276.87 276.326,275.43 C276.326,273.864 277.694,272.766 279.62,272.766 C281.204,272.766 282.392,273.522 282.86,275.07 L281.618,275.304 C281.312,274.35 280.664,273.774 279.53,273.774 C278.504,273.774 277.586,274.26 277.586,275.268 C277.586,276.276 278.468,276.546 279.638,276.852 C281.564,277.356 283.022,277.752 283.022,279.444 C283.022,281.082 281.618,282.234 279.62,282.234 Z M292.238,282.234 C290.87,282.234 289.43,281.46 289.43,279.786 C289.43,277.536 292.112,276.78 295.352,276.672 L295.352,276.06 C295.352,274.494 294.398,273.828 293.156,273.828 C291.842,273.828 291.158,274.656 290.906,275.52 L289.628,275.304 C290.06,273.792 291.374,272.766 293.156,272.766 C295.082,272.766 296.648,273.864 296.648,276.078 L296.648,282 L295.586,282 L295.46,280.668 L295.406,280.668 C294.65,281.694 293.714,282.234 292.238,282.234 Z M292.616,281.226 C294.038,281.226 295.388,279.984 295.388,278.166 L295.388,277.698 C293.102,277.788 290.744,278.112 290.744,279.696 C290.744,280.794 291.626,281.226 292.616,281.226 Z M303.47,282.234 C302.066,282.234 301.094,281.604 300.5,280.668 L300.464,280.668 L300.32,282 L299.204,282 L299.204,269.04 L300.5,269.04 L300.5,274.332 L300.536,274.332 C301.166,273.342 302.102,272.766 303.488,272.766 C305.648,272.766 307.322,274.782 307.322,277.464 C307.322,280.002 305.738,282.234 303.47,282.234 Z M303.254,281.154 C305.036,281.154 306.008,279.57 306.008,277.464 C306.008,275.52 305.036,273.828 303.254,273.828 C301.4,273.828 300.428,275.484 300.446,277.464 C300.464,279.57 301.4,281.154 303.254,281.154 Z M313.136,282.234 C310.58,282.234 308.87,280.2 308.87,277.536 C308.87,274.836 310.58,272.766 313.136,272.766 C315.692,272.766 317.402,274.836 317.402,277.536 C317.402,280.2 315.692,282.234 313.136,282.234 Z M313.136,281.154 C314.864,281.154 316.106,279.48 316.106,277.536 C316.106,275.52 314.864,273.846 313.136,273.846 C311.228,273.846 310.166,275.52 310.166,277.536 C310.166,279.48 311.246,281.154 313.136,281.154 Z M322.37,282.234 C320.714,282.234 319.508,281.136 319.508,278.832 L319.508,273 L320.804,273 L320.804,278.67 C320.804,280.344 321.488,281.118 322.658,281.118 C324.44,281.118 325.592,279.408 325.592,277.374 L325.592,273 L326.888,273 L326.888,282 L325.79,282 L325.628,280.362 L325.574,280.362 C325.088,281.226 324.17,282.234 322.37,282.234 Z M332.36,282.108 C330.848,282.108 329.966,281.388 329.966,279.39 L329.966,274.08 L328.274,274.08 L328.274,273 L329.966,273 L329.966,271.002 L331.262,271.002 L331.262,273 L333.296,273 L333.296,274.08 L331.262,274.08 L331.262,279.426 C331.262,280.578 331.622,281.028 332.468,281.028 C332.81,281.028 333.206,280.992 333.548,280.92 L333.548,281.91 C333.368,282 332.756,282.108 332.36,282.108 Z M342.728,282.108 C341.216,282.108 340.334,281.388 340.334,279.39 L340.334,274.08 L338.642,274.08 L338.642,273 L340.334,273 L340.334,271.002 L341.63,271.002 L341.63,273 L343.664,273 L343.664,274.08 L341.63,274.08 L341.63,279.426 C341.63,280.578 341.99,281.028 342.836,281.028 C343.178,281.028 343.574,280.992 343.916,280.92 L343.916,281.91 C343.736,282 343.124,282.108 342.728,282.108 Z M345.428,282 L345.428,269.04 L346.724,269.04 L346.724,274.458 L346.76,274.458 C347.3,273.648 348.254,272.766 349.856,272.766 C351.764,272.766 352.7,273.972 352.7,275.898 L352.7,282 L351.404,282 L351.404,275.898 C351.404,274.458 350.738,273.828 349.55,273.828 C347.804,273.828 346.724,275.34 346.724,277.554 L346.724,282 L345.428,282 Z M358.946,282.234 C356.336,282.234 354.788,280.218 354.788,277.464 C354.788,274.638 356.642,272.766 358.946,272.766 C361.25,272.766 363.05,274.692 362.978,277.788 L356.102,277.788 C356.156,279.57 357.236,281.154 358.964,281.154 C360.386,281.154 361.232,280.164 361.538,279.21 L362.78,279.444 C362.402,280.776 361.214,282.234 358.946,282.234 Z M356.174,276.762 L361.61,276.762 C361.52,275.088 360.386,273.828 358.946,273.828 C357.542,273.828 356.372,275.034 356.174,276.762 Z M369.908,285.6 L369.908,273 L371.024,273 L371.15,274.422 L371.204,274.422 C371.6,273.81 372.464,272.766 374.174,272.766 C376.514,272.766 378.062,274.818 378.062,277.518 C378.062,280.29 376.424,282.234 374.084,282.234 C372.86,282.234 371.834,281.676 371.24,280.758 L371.204,280.758 L371.204,285.6 L369.908,285.6 Z M373.958,281.154 C375.74,281.154 376.712,279.588 376.712,277.482 C376.712,275.556 375.74,273.828 373.958,273.828 C372.104,273.828 371.186,275.502 371.204,277.482 C371.222,279.588 372.104,281.154 373.958,281.154 Z M379.988,282 L379.988,281.352 C379.988,279.084 381.428,277.536 383.696,276.24 C385.262,275.376 386.63,274.548 386.63,272.892 C386.63,271.326 385.622,270.39 384.02,270.39 C382.256,270.39 381.392,271.776 381.338,273.234 L379.952,273.234 C380.006,270.984 381.698,269.256 384.02,269.256 C386.342,269.256 387.98,270.678 387.98,272.874 C387.98,274.926 386.27,276.15 384.344,277.248 C382.508,278.274 381.572,279.066 381.446,280.812 L387.98,280.812 L387.98,282 L379.988,282 Z M390.14,285.6 L390.14,273 L391.256,273 L391.382,274.422 L391.436,274.422 C391.832,273.81 392.696,272.766 394.406,272.766 C396.746,272.766 398.294,274.818 398.294,277.518 C398.294,280.29 396.656,282.234 394.316,282.234 C393.092,282.234 392.066,281.676 391.472,280.758 L391.436,280.758 L391.436,285.6 L390.14,285.6 Z M394.19,281.154 C395.972,281.154 396.944,279.588 396.944,277.482 C396.944,275.556 395.972,273.828 394.19,273.828 C392.336,273.828 391.418,275.502 391.436,277.482 C391.454,279.588 392.336,281.154 394.19,281.154 Z M415.988,273 L417.356,273 L414.422,282 L412.874,282 L410.714,274.584 L410.642,274.584 L408.482,282 L406.934,282 L404,273 L405.368,273 L407.672,280.596 L407.744,280.596 L409.958,273 L411.398,273 L413.612,280.596 L413.684,280.596 L415.988,273 Z M422.504,282.234 C419.894,282.234 418.346,280.218 418.346,277.464 C418.346,274.638 420.2,272.766 422.504,272.766 C424.808,272.766 426.608,274.692 426.536,277.788 L419.66,277.788 C419.714,279.57 420.794,281.154 422.522,281.154 C423.944,281.154 424.79,280.164 425.096,279.21 L426.338,279.444 C425.96,280.776 424.772,282.234 422.504,282.234 Z M419.732,276.762 L425.168,276.762 C425.078,275.088 423.944,273.828 422.504,273.828 C421.1,273.828 419.93,275.034 419.732,276.762 Z M432.89,282.234 C431.486,282.234 430.514,281.604 429.92,280.668 L429.884,280.668 L429.74,282 L428.624,282 L428.624,269.04 L429.92,269.04 L429.92,274.332 L429.956,274.332 C430.586,273.342 431.522,272.766 432.908,272.766 C435.068,272.766 436.742,274.782 436.742,277.464 C436.742,280.002 435.158,282.234 432.89,282.234 Z M432.674,281.154 C434.456,281.154 435.428,279.57 435.428,277.464 C435.428,275.52 434.456,273.828 432.674,273.828 C430.82,273.828 429.848,275.484 429.866,277.464 C429.884,279.57 430.82,281.154 432.674,281.154 Z" id="an-international-com" fill="#FFFFFF"></path>
    </g>
</svg>