<?xml version="1.0" encoding="UTF-8" standalone="no"?>
<svg width="500px" height="300px" viewBox="0 0 500 300" version="1.1" xmlns="http://www.w3.org/2000/svg" xmlns:xlink="http://www.w3.org/1999/xlink" style="background: #000000;">
    <!-- Generator: Sketch 49 (51002) - http://www.bohemiancoding.com/sketch -->
    <title>Artboard</title>
    <desc>Created with Sketch.</desc>
    <defs></defs>
    <g id="Artboard" stroke="none" stroke-width="1" fill="none" fill-rule="evenodd">
        <path d="M49,136.84 L49,85 L65.56,85 C77.872,85 83.2,92.848 83.2,100.768 C83.2,108.688 77.872,116.392 65.56,116.392 L54.688,116.392 L54.688,136.84 L49,136.84 Z M54.688,111.784 L65.56,111.784 C74.92,111.784 77.512,106.168 77.512,100.768 C77.512,94.936 74.92,89.608 65.56,89.608 L54.688,89.608 L54.688,111.784 Z M102.456,137.776 C92.016,137.776 85.824,129.712 85.824,118.696 C85.824,107.392 93.24,99.904 102.456,99.904 C111.672,99.904 118.872,107.608 118.584,119.992 L91.08,119.992 C91.296,127.12 95.616,133.456 102.528,133.456 C108.216,133.456 111.6,129.496 112.824,125.68 L117.792,126.616 C116.28,131.944 111.528,137.776 102.456,137.776 Z M91.368,115.888 L113.112,115.888 C112.752,109.192 108.216,104.152 102.456,104.152 C96.84,104.152 92.16,108.976 91.368,115.888 Z M141.696,137.776 C131.256,137.776 125.064,129.712 125.064,118.696 C125.064,107.392 132.48,99.904 141.696,99.904 C150.912,99.904 158.112,107.608 157.824,119.992 L130.32,119.992 C130.536,127.12 134.856,133.456 141.768,133.456 C147.456,133.456 150.84,129.496 152.064,125.68 L157.032,126.616 C155.52,131.944 150.768,137.776 141.696,137.776 Z M130.608,115.888 L152.352,115.888 C151.992,109.192 147.456,104.152 141.696,104.152 C136.08,104.152 131.4,108.976 130.608,115.888 Z M166.176,136.84 L166.176,100.84 L170.64,100.84 L171.144,107.104 L171.288,107.104 C173.232,102.568 177.336,99.904 181.512,99.904 C183.744,99.904 185.832,100.408 186.912,101.056 L186.912,105.088 C185.832,104.656 183.96,104.224 181.728,104.224 C176.04,104.224 171.36,108.328 171.36,119.2 L171.36,136.84 L166.176,136.84 Z M193.448,120.064 L193.448,114.952 L212.6,114.952 L212.6,120.064 L193.448,120.064 Z M232.472,137.272 C226.424,137.272 222.896,134.392 222.896,126.4 L222.896,105.16 L216.128,105.16 L216.128,100.84 L222.896,100.84 L222.896,92.848 L228.08,92.848 L228.08,100.84 L236.216,100.84 L236.216,105.16 L228.08,105.16 L228.08,126.544 C228.08,131.152 229.52,132.952 232.904,132.952 C234.272,132.952 235.856,132.808 237.224,132.52 L237.224,136.48 C236.504,136.84 234.056,137.272 232.472,137.272 Z M258.464,137.776 C248.24,137.776 241.4,129.64 241.4,118.984 C241.4,108.184 248.24,99.904 258.464,99.904 C268.688,99.904 275.528,108.184 275.528,118.984 C275.528,129.64 268.688,137.776 258.464,137.776 Z M258.464,133.456 C265.376,133.456 270.344,126.76 270.344,118.984 C270.344,110.92 265.376,104.224 258.464,104.224 C250.832,104.224 246.584,110.92 246.584,118.984 C246.584,126.76 250.904,133.456 258.464,133.456 Z M282.728,120.064 L282.728,114.952 L301.88,114.952 L301.88,120.064 L282.728,120.064 Z M313.024,136.84 L313.024,85 L329.584,85 C341.896,85 347.224,92.848 347.224,100.768 C347.224,108.688 341.896,116.392 329.584,116.392 L318.712,116.392 L318.712,136.84 L313.024,136.84 Z M318.712,111.784 L329.584,111.784 C338.944,111.784 341.536,106.168 341.536,100.768 C341.536,94.936 338.944,89.608 329.584,89.608 L318.712,89.608 L318.712,111.784 Z M366.48,137.776 C356.04,137.776 349.848,129.712 349.848,118.696 C349.848,107.392 357.264,99.904 366.48,99.904 C375.696,99.904 382.896,107.608 382.608,119.992 L355.104,119.992 C355.32,127.12 359.64,133.456 366.552,133.456 C372.24,133.456 375.624,129.496 376.848,125.68 L381.816,126.616 C380.304,131.944 375.552,137.776 366.48,137.776 Z M355.392,115.888 L377.136,115.888 C376.776,109.192 372.24,104.152 366.48,104.152 C360.864,104.152 356.184,108.976 355.392,115.888 Z M405.72,137.776 C395.28,137.776 389.088,129.712 389.088,118.696 C389.088,107.392 396.504,99.904 405.72,99.904 C414.936,99.904 422.136,107.608 421.848,119.992 L394.344,119.992 C394.56,127.12 398.88,133.456 405.792,133.456 C411.48,133.456 414.864,129.496 416.088,125.68 L421.056,126.616 C419.544,131.944 414.792,137.776 405.72,137.776 Z M394.632,115.888 L416.376,115.888 C416.016,109.192 411.48,104.152 405.72,104.152 C400.104,104.152 395.424,108.976 394.632,115.888 Z M430.2,136.84 L430.2,100.84 L434.664,100.84 L435.168,107.104 L435.312,107.104 C437.256,102.568 441.36,99.904 445.536,99.904 C447.768,99.904 449.856,100.408 450.936,101.056 L450.936,105.088 C449.856,104.656 447.984,104.224 445.752,104.224 C440.064,104.224 435.384,108.328 435.384,119.2 L435.384,136.84 L430.2,136.84 Z M97.66,208.84 L83.116,157 L89.38,157 L101.188,202 L101.548,202 L113.932,157 L121.132,157 L132.868,201.856 L133.156,201.856 L145.612,157 L151.66,157 L136.54,208.84 L129.34,208.84 L117.676,163.552 L117.244,163.552 L104.716,208.84 L97.66,208.84 Z M169.1,209.776 C158.66,209.776 152.468,201.712 152.468,190.696 C152.468,179.392 159.884,171.904 169.1,171.904 C178.316,171.904 185.516,179.608 185.228,191.992 L157.724,191.992 C157.94,199.12 162.26,205.456 169.172,205.456 C174.86,205.456 178.244,201.496 179.468,197.68 L184.436,198.616 C182.924,203.944 178.172,209.776 169.1,209.776 Z M158.012,187.888 L179.756,187.888 C179.396,181.192 174.86,176.152 169.1,176.152 C163.484,176.152 158.804,180.976 158.012,187.888 Z M210.644,209.776 C205.028,209.776 201.14,207.256 198.764,203.512 L198.62,203.512 L198.044,208.84 L193.58,208.84 L193.58,157 L198.764,157 L198.764,178.168 L198.908,178.168 C201.428,174.208 205.172,171.904 210.716,171.904 C219.356,171.904 226.052,179.968 226.052,190.696 C226.052,200.848 219.716,209.776 210.644,209.776 Z M209.78,205.456 C216.908,205.456 220.796,199.12 220.796,190.696 C220.796,182.92 216.908,176.152 209.78,176.152 C202.364,176.152 198.476,182.776 198.548,190.696 C198.62,199.12 202.364,205.456 209.78,205.456 Z M248.876,215.032 L270.98,157.072 L274.94,157.072 L252.908,215.032 L248.876,215.032 Z M294.092,215.176 L294.092,211.288 L410.032002,211.288 L410.032002,215.176 L294.092,215.176 Z" id="Peer-to-Peer-Web-/-_" fill="#FFFFFF"></path>
    </g>
</svg>